<svg id="SvgjsSvg1001" width="288" height="288" xmlns="http://www.w3.org/2000/svg" version="1.1" xmlns:xlink="http://www.w3.org/1999/xlink" xmlns:svgjs="http://svgjs.com/svgjs"><defs id="SvgjsDefs1002"></defs><g id="SvgjsG1008" transform="matrix(1,0,0,1,0,0)"><svg xmlns="http://www.w3.org/2000/svg" width="288" height="288" fill-rule="evenodd" clip-rule="evenodd" image-rendering="optimizeQuality" shape-rendering="geometricPrecision" text-rendering="geometricPrecision" viewBox="0 0 16048 10737"><path fill="#0e63d3" d="M3326 12c-27 9-50 20-69 35-18 15-34 33-44 53-11 20-16 43-16 67 0 25 3 46 9 63 7 17 17 33 30 46 13 13 30 23 51 32 20 9 43 17 70 24 30 7 56 14 79 19 23 4 42 9 58 15 15 6 26 12 34 19 7 8 11 17 11 30 0 12-3 22-11 30-7 9-16 16-27 22-12 5-24 9-40 12-15 2-31 4-47 4-20 0-37-2-51-6-14-3-26-7-35-13-9-6-16-11-22-19-6-7-10-13-14-21-3-6-7-11-12-14-5-3-12-5-21-5l-57 0c-5 0-11 2-15 6-5 4-7 9-7 16 2 23 9 45 22 65 13 19 30 35 52 49 21 14 46 25 73 32 28 7 57 11 87 11 37 0 69-4 98-13 29-9 54-20 74-35 20-15 36-33 46-54 11-20 17-43 17-67 0-22-4-43-11-60-7-17-19-32-33-46-16-13-34-24-58-34-23-9-52-17-84-24-30-7-55-12-75-17-20-5-36-11-48-17-12-5-21-12-26-20-5-7-8-18-8-30 0-10 3-19 8-27 6-9 13-16 23-22 9-5 20-9 33-12 12-3 26-5 40-5 32 0 57 5 74 15 16 11 28 22 36 36 4 5 8 10 13 14 4 4 12 5 21 5l56 0c6 0 12-2 17-6 4-4 6-9 5-16-1-15-6-32-15-50-10-17-24-33-42-48-19-14-42-27-69-36-28-10-60-15-96-15-30 0-58 4-84 12l0 0zM3721 254c-1 12-1 25-1 38 0 14 0 27 1 39 0 12 0 24 1 34 1 30 7 59 17 85 10 27 25 51 44 70 20 20 44 36 73 47 29 12 64 17 104 17 40 0 74-5 104-17 29-11 54-27 73-47 19-19 34-43 45-70 9-26 15-55 17-85 0-10 0-22 1-34 0-12 0-25 0-39 0-13 0-26 0-38-1-12-1-24-1-34-2-31-8-59-18-86-11-27-25-50-45-70-19-20-44-36-73-47-29-11-63-17-103-17-40 0-75 6-104 17-29 12-53 28-73 47-19 20-34 43-44 70-10 27-16 56-17 86-1 10-1 22-1 34l0 0zm370 38c0 25-1 49-2 69-2 39-15 69-37 90-24 21-54 32-92 32-38 0-68-11-91-32-23-21-35-51-38-90-1-20-2-44-2-69 0-25 1-48 2-68 3-39 15-69 38-91 23-21 53-32 91-32 38 0 68 11 92 32 23 22 35 52 37 91 1 20 2 43 2 68l0 0zM4328 8c-6 0-12 3-16 7-4 4-6 9-6 15l0 524c0 6 2 12 6 16 4 4 10 6 16 6l65 0c6 0 12-2 16-6 4-4 6-10 6-16l0-189 108 0 106 189c3 4 6 9 12 14 5 6 13 8 23 8l69 0c5 0 9-2 13-6 4-3 5-7 5-12 0-2-1-5-2-9l-112-200c35-14 61-34 80-63 18-27 27-60 27-100 0-56-18-99-53-131-35-31-87-47-154-47l-209 0zm87 102l118 0c31 0 55 4 74 15 18 11 27 31 27 61 0 30-9 51-27 61-19 11-43 17-74 17l-118 0 0-154zM4871 8c-5 0-11 3-15 7-4 4-7 9-7 15l0 524c0 6 3 12 7 16 4 4 10 6 15 6l66 0c6 0 11-2 15-6 4-4 7-10 7-16l0-189 108 0 106 189c3 4 6 9 11 14 5 6 13 8 24 8l69 0c5 0 9-2 13-6 3-3 5-7 5-12 0-2-1-5-3-9l-112-200c35-14 62-34 81-63 18-27 27-60 27-100 0-56-18-99-53-131-35-31-87-47-154-47l-210 0zm88 102l118 0c30 0 55 4 73 15 19 11 28 31 28 61 0 30-9 51-28 61-18 11-43 17-73 17l-118 0 0-154zM5743 8c-11 0-19 3-25 8-5 6-9 10-9 12l-132 230-131-230c-1-2-4-6-10-12-6-5-14-8-24-8l-61 0c-6 0-12 3-16 7-4 4-6 9-6 15 0 2 1 5 2 7l192 339 0 178c0 6 2 12 6 16 4 4 10 6 16 6l65 0c5 0 11-2 15-6 4-4 7-10 7-16l0-178 192-339c1-2 1-5 1-7 0-6-2-11-6-15-4-4-10-7-15-7l-61 0zM5814 617l0 2c0 5 2 9 6 12 3 4 7 6 12 6l36 0c11 0 19-3 25-9 5-6 8-11 10-17l54-135c1-1 1-3 1-5 0-5-2-9-5-13-4-4-8-5-13-5l-71 0c-10 0-18 3-24 10-6 7-10 14-11 21l-20 133zM6269 8c-6 0-12 3-16 7-4 4-6 9-6 15l0 524c0 6 2 12 6 16 4 4 10 6 16 6l65 0c6 0 12-2 16-6 4-4 6-10 6-16l0-181 130 0c66 0 116-15 153-47 36-31 54-77 54-136 0-59-18-105-54-136-37-30-87-46-153-46l-217 0zm87 102l126 0c31 0 55 5 74 17 18 12 27 33 27 63 0 30-9 51-27 63-19 12-43 19-74 19l-126 0 0-162zM6925 8c-9 0-15 3-20 7-4 4-8 12-11 21l-199 513c-1 1-1 3-1 5 0 6 3 12 7 16 4 4 10 6 15 6l59 0c10 0 18-2 23-7 4-4 7-9 8-13l35-90 257 0 35 90c1 4 5 9 9 13 4 5 12 7 22 7l59 0c5 0 11-2 15-6 4-4 7-10 7-16 0-2 0-4-1-5l-199-513c-3-9-7-17-11-21-4-4-11-7-20-7l-89 0zm-45 356l90-231 89 231-179 0zM7286 252c-1 13-1 26-1 39 0 12 0 25 1 38 0 12 0 23 1 34 1 32 7 62 18 89 10 28 25 51 45 71 20 19 46 34 76 45 30 11 65 16 107 16 41 0 77-5 108-17 30-10 56-26 77-46 20-20 35-43 46-71 10-26 15-56 15-89l0-89c0-6-2-12-6-16-4-4-10-6-16-6l-186 0c-6 0-12 2-16 6-4 4-6 10-6 16l0 57c0 6 2 12 6 16 4 4 10 6 16 6l99 0 0 7c0 23-3 43-10 58-7 16-16 29-28 39-13 10-27 17-44 21-17 4-35 7-55 7-41 0-73-11-98-31-24-20-37-53-39-97 0-21-1-43-1-67 0-23 1-45 1-66 2-36 15-66 39-88 25-22 57-33 98-33 24 0 44 4 61 9 16 7 29 14 39 21 10 9 17 16 22 23 4 7 7 12 8 15 2 3 4 6 8 9 4 3 9 5 14 5l66 0c6 0 11-3 16-7 4-4 7-9 6-15-1-12-5-28-12-47-8-17-21-35-38-52-19-17-43-32-74-44-30-12-69-18-116-18-40 0-75 5-105 15-30 11-56 26-76 45-21 20-37 42-47 69-11 27-17 57-18 89-1 11-1 22-1 34l0 0zM7991 475l0-135 244 0c6 0 12-2 16-6 4-5 6-10 6-16l0-58c0-5-2-11-6-15-4-4-10-6-16-6l-244 0 0-129 262 0c6 0 12-3 16-7 4-4 6-10 6-15l0-58c0-6-2-11-6-15-4-4-10-7-16-7l-350 0c-5 0-11 3-15 7-4 4-6 9-6 15l0 524c0 6 2 12 6 16 4 4 10 6 15 6l357 0c5 0 11-2 15-6 4-4 7-10 7-16l0-57c0-6-3-12-7-16-4-4-10-6-15-6l-269 0zM8992 576c6 0 12-2 16-6 4-4 6-10 6-16l0-524c0-6-2-11-6-15-4-4-10-7-16-7l-65 0c-6 0-12 3-16 7-4 4-6 9-6 15l0 334-227-337c-3-3-6-7-11-12-5-4-12-7-21-7l-57 0c-6 0-11 3-15 7-4 4-7 9-7 15l0 524c0 6 3 12 7 16 4 4 9 6 15 6l66 0c6 0 11-2 15-6 4-4 7-10 7-16l0-334 227 337c2 3 6 7 10 12 5 5 13 7 22 7l56 0zM9121 254c-1 12-1 25-1 38 0 14 0 27 1 39 0 12 0 24 0 34 2 30 8 59 18 85 10 27 25 51 44 70 20 20 44 36 73 47 29 12 64 17 104 17 40 0 74-5 104-17 29-11 53-27 73-47 19-19 34-43 44-70 10-26 16-55 17-85 1-10 1-22 2-34 0-12 0-25 0-39 0-13 0-26 0-38-1-12-1-24-2-34-1-31-7-59-17-86-11-27-26-50-45-70-19-20-44-36-73-47-29-11-63-17-103-17-40 0-75 6-104 17-29 12-53 28-73 47-19 20-34 43-44 70-10 27-16 56-18 86 0 10 0 22 0 34l0 0zm370 38c0 25-1 49-2 69-3 39-15 69-37 90-24 21-54 32-92 32-38 0-68-11-91-32-23-21-36-51-38-90-1-20-2-44-2-69 0-25 1-48 2-68 2-39 15-69 38-91 23-21 53-32 91-32 38 0 68 11 92 32 22 22 34 52 37 91 1 20 2 43 2 68l0 0zM9671 8c-6 0-12 3-16 7-4 4-6 9-6 15l0 58c0 5 2 11 6 15 4 4 10 7 16 7l146 0 0 444c0 6 2 12 6 16 4 4 10 6 16 6l65 0c6 0 12-2 16-6 4-4 6-10 6-16l0-444 146 0c6 0 12-3 16-7 4-4 6-10 6-15l0-58c0-6-2-11-6-15-4-4-10-7-16-7l-401 0zM10362 8c-6 0-11 3-15 7-5 4-7 9-7 15l0 524c0 6 2 12 7 16 4 4 9 6 15 6l66 0c5 0 11-2 15-6 4-4 7-10 7-16l0-186 242 0c6 0 12-2 16-6 4-4 6-10 6-16l0-57c0-6-2-11-6-16-4-4-10-6-16-6l-242 0 0-157 258 0c6 0 12-3 16-7 4-4 6-10 6-15l0-58c0-6-2-11-6-15-4-4-10-7-16-7l-346 0zM10798 254c-1 12-1 25-1 38 0 14 0 27 1 39 0 12 0 24 0 34 2 30 8 59 18 85 10 27 25 51 44 70 20 20 44 36 73 47 29 12 64 17 104 17 40 0 74-5 104-17 29-11 53-27 73-47 19-19 34-43 45-70 9-26 15-55 17-85 0-10 0-22 1-34 0-12 0-25 0-39 0-13 0-26 0-38-1-12-1-24-1-34-2-31-8-59-18-86-11-27-25-50-45-70-19-20-44-36-73-47-29-11-63-17-103-17-40 0-75 6-104 17-29 12-53 28-73 47-19 20-34 43-44 70-10 27-16 56-18 86 0 10 0 22 0 34l0 0zm370 38c0 25-1 49-2 69-2 39-15 69-37 90-24 21-54 32-92 32-38 0-68-11-91-32-23-21-36-51-38-90-1-20-2-44-2-69 0-25 1-48 2-68 2-39 15-69 38-91 23-21 53-32 91-32 38 0 68 11 92 32 22 22 35 52 37 91 1 20 2 43 2 68l0 0zM11757 8c-6 0-12 3-16 7-4 4-6 9-6 15l0 329c0 22-3 41-9 56-7 16-16 29-26 39-11 10-24 17-39 21-15 5-32 8-50 8-18 0-34-3-50-8-15-4-28-11-39-21-10-10-19-23-25-39-6-15-9-34-9-56l0-329c0-6-2-11-6-15-4-4-10-7-16-7l-65 0c-6 0-12 3-16 7-4 4-6 9-6 15l0 333c0 33 4 64 14 91 9 26 24 50 43 69 20 20 44 34 73 45 29 11 63 16 102 16 38 0 72-5 101-16 29-11 54-25 73-45 20-19 34-43 44-69 10-27 15-58 15-91l0-333c0-6-3-11-7-15-4-4-10-7-15-7l-65 0zM12391 576c6 0 12-2 16-6 4-4 6-10 6-16l0-524c0-6-2-11-6-15-4-4-10-7-16-7l-65 0c-6 0-12 3-16 7-4 4-6 9-6 15l0 334-228-337c-2-3-5-7-10-12-5-4-12-7-21-7l-57 0c-6 0-11 3-15 7-4 4-7 9-7 15l0 524c0 6 3 12 7 16 4 4 9 6 15 6l66 0c5 0 11-2 15-6 4-4 7-10 7-16l0-334 227 337c2 3 5 7 10 12 5 5 13 7 21 7l57 0zM12562 8c-6 0-12 3-16 7-4 4-6 9-6 15l0 524c0 6 2 12 6 16 4 4 10 6 16 6l204 0c39 0 73-6 102-16 29-11 53-25 73-45 19-19 34-43 45-70 11-28 16-59 19-93 2-40 2-80 0-120-3-34-8-65-19-92-11-28-26-52-45-71-21-19-45-35-74-45-30-11-65-16-105-16l-200 0zm333 344c-1 17-4 33-10 49-5 15-14 28-25 39-10 10-24 19-40 25-17 6-36 10-58 10l-113 0 0-365 109 0c24 0 43 3 60 8 17 7 31 16 42 26 11 12 20 25 25 39 6 16 9 32 10 49 3 40 3 80 0 120l0 0zM13122 461c-5 0-11 2-15 6-4 4-7 10-7 16l0 71c0 6 3 12 7 16 4 4 10 6 15 6l70 0c6 0 11-2 15-6 5-4 7-10 7-16l0-71c0-6-2-12-7-16-4-4-9-6-15-6l-70 0zm88-431c0-6-3-11-7-15-4-4-9-7-15-7l-62 0c-5 0-11 3-15 7-4 4-7 9-7 15l0 360c0 6 3 12 7 16 4 4 10 6 15 6l62 0c6 0 11-2 15-6 4-4 7-10 7-16l0-360z" class="color1e5ca3 svgShape"></path><path fill="#f1f6fe" d="M15090 9997c-95,-182 -482,-328 -655,-361 -925,-177 -1894,-152 -2831,-149 -1020,3 -1994,167 -3006,242 -526,39 -1082,-31 -1609,-50 -869,-30 -1737,-65 -2605,-106 -749,-34 -1526,44 -2186,457 -75,47 -151,103 -185,187 -215,529 2459,463 2807,472 1757,45 3514,69 5271,22 1307,-36 2668,-34 3964,-218 286,-41 676,-55 924,-224 137,-93 156,-187 111,-272z" class="colorf0f8fe svgShape"></path><path fill="#bb6f0d" d="M13953 2798c23 0 46 0 70 1l2-35c-25-1-49-1-72-1l0 35zM14163 2809c46 5 93 11 140 18l6-34c-48-8-96-14-142-19l-4 35zm278 45c46 11 91 23 136 37l10-34c-45-14-92-26-138-37l-8 34zm268 83c44 19 86 39 125 61l18-31c-41-23-84-43-130-62l-13 32zm240 138c36 31 68 65 92 100l29-19c-26-39-60-75-99-108l-22 27zm144 223c4 21 7 42 7 64 0 19-2 39-5 59-1 4-2 7-2 10l34 8c1-4 2-8 2-12 4-22 6-44 6-65 0-24-3-48-7-71l-35 7zm-64 245c-29 29-66 56-110 80l16 31c47-25 87-54 119-86l-25-25zm-237 136c-42 15-86 29-134 41l9 34c48-12 94-26 137-42l-12-33zm-271 72c-45 9-91 17-139 25l5 35c49-8 95-16 140-25l-6-35zm-279 44c-46 5-93 10-141 15l4 35c48-5 95-10 141-15l-4-35zm-281 26c-47 4-94 6-142 9l2 35c48-2 95-5 142-9l-2-35zm-283 16c-47 1-94 3-141 4l1 36c47-2 95-3 141-5l-1-35zm-283 7c-47 1-94 1-141 2l0 35c47 0 95-1 142-1l-1-36zm-283 2c-47 0-94 0-141-1l-1 35c47 1 95 1 142 1l0-35zm-283-3c-48-1-95-1-142-2l0 35c46 1 94 2 141 2l1-35zm-283-6c-48-1-95-2-142-4l-1 35c47 2 94 3 142 4l1-35zm-283-8c-49-2-96-4-142-5l-1 35c46 2 93 3 142 5l1-35zm-283-10c-50-2-97-3-142-4l-1 35c44 1 92 3 141 4l2-35zm-284-8c-43-1-82-2-117-2-8 0-17 0-25 0l0 36c8 0 17 0 25 0 34 0 73 0 116 1l1-35zm-284 0c-47 0-94 1-141 1l0 36c47-1 94-1 142-2l-1-35zm-283 3c-47 0-94 1-142 1l1 36c47-1 94-1 141-2l0-35zm-283 3c-47 1-95 2-142 2l1 36c47-1 94-2 141-2l0-36zm-284 5c-47 1-94 2-141 3l1 35c47-1 94-2 141-3l-1-35zm-283 7c-47 1-94 3-142 4l2 35c47-1 94-3 141-4l-1-35zm-283 9c-47 2-95 4-142 6l2 35c47-2 94-4 141-6l-1-35zm-283 12c-48 3-95 5-142 8l2 35c47-2 94-5 141-7l-1-36zm-283 17c-48 3-95 6-142 9l3 36c47-4 94-7 141-10l-2-35zm-283 20c-47 4-95 8-142 12l4 35c47-4 94-8 141-12l-3-35zm-283 26c-47 4-94 9-141 15l4 35c47-5 94-10 141-15l-4-35zm-282 31c-47 6-94 12-140 18l4 35c47-6 94-12 141-18l-5-35zm-281 37c-47 7-93 14-140 22l5 35c47-8 94-15 140-22l-5-35zm-280 45c-47 8-93 16-140 25l7 34c46-8 93-16 139-24l-6-35zm-279 52c-46 9-93 18-139 28l8 35c46-10 92-20 138-29l-7-34zm-278 60c-44 11-90 24-137 39l11 34c46-15 91-28 135-39l-9-34 0 0zm-271 89c-45 19-88 40-129 64l18 31c39-23 81-44 125-63l-14-32zm-247 148c-37 33-70 69-96 110l29 19c25-37 55-71 90-102l-23-27zm-156 244c-9 35-14 73-14 113 0 11 1 21 1 32l36-2c-1-10-1-20-1-30 0-37 4-72 12-105l-34-8zm19 288c18 46 42 88 70 128l29-20c-27-38-50-78-66-120l-33 12zm165 237c4 4 9 8 13 12 32 29 64 55 98 80l21-29c-33-24-65-49-95-77-4-4-8-8-13-11l-24 25zm231 170c42 24 85 45 128 65l15-33c-43-19-84-39-125-63l-18 31zm261 117c45 16 91 30 137 42l9-34c-45-12-90-26-134-41l-12 33zm275 75c47 10 93 19 140 26l6-34c-46-8-92-17-138-26l-8 34zm281 48c47 6 94 12 141 18l4-35c-47-6-94-12-140-18l-5 35zm282 34c36 5 72 9 108 13 11 2 21 3 32 4l4-35c-11-1-21-2-31-4-37-4-73-8-109-13l-4 35 0 0zm283 28c43 3 91 6 142 8l2-35c-51-3-99-5-142-8l-2 35zm284 13c46 2 93 3 142 4l1-35c-49-1-96-3-142-4l-1 35zm284 8c46 1 94 2 142 2l1-35c-49-1-96-2-142-3l-1 36zm284 5c46 1 94 1 142 2l0-35c-48-1-95-2-141-2l-1 35zm284 4c46 1 94 1 142 2l0-35c-48-1-95-2-142-2l0 35zm283 4c47 1 94 1 142 2l1-35c-48-1-95-2-142-2l-1 35zm284 4c47 1 94 2 142 3l0-36c-47 0-95-1-142-2l0 35zm283 5c47 1 95 2 142 3l1-35c-48-1-95-2-142-3l-1 35zm284 6c47 1 94 2 141 3l1-35c-47-1-94-2-141-3l-1 35zm283 7c47 2 94 3 142 4l1-35c-48-1-95-3-142-4l-1 35zm284 9c47 2 94 3 141 5l2-35c-48-2-95-4-142-5l-1 35zm283 11c47 2 94 4 141 6l2-35c-47-2-94-4-142-6l-1 35zm283 13c47 3 95 5 142 8l2-35c-47-3-95-6-142-8l-2 35zm283 16c47 3 95 7 141 10l3-35c-47-4-94-7-142-10l-2 35zm283 21c47 3 94 7 141 11l3-35c-47-4-94-8-142-12l-2 36zm282 24c47 5 94 10 141 15l4-35c-47-5-94-10-142-15l-3 35zm281 32c48 6 95 12 141 19l5-35c-46-7-93-13-141-19l-5 35zm280 40c48 8 95 16 140 25l6-35c-45-8-92-17-140-25l-6 35zm278 54c48 11 93 22 136 34l10-34c-44-12-90-23-138-35l-8 35zm271 76c43 15 88 31 131 49l14-33c-45-18-90-34-134-49l-11 33zm255 112c40 24 76 52 107 85l25-24c-33-36-72-66-113-91l-19 30zm180 198c16 38 27 82 32 132l35-3c-5-53-16-101-34-143l-33 14zm24 266c-10 45-26 86-49 125l30 18c25-42 43-87 53-135l-34-8zm-134 232c-31 30-67 59-107 86l19 29c42-28 80-58 113-90l-25-25zm-228 155c-41 20-84 38-129 56l13 33c46-18 90-37 131-58l-15-31zm-262 101c-44 14-89 26-135 38l8 34c47-12 93-24 138-38l-11-34zm-273 69c-46 9-92 18-139 26l6 35c47-8 94-17 140-27l-7-34zm-279 47c-46 7-93 13-140 18l4 35c47-5 94-11 141-18l-5-35zm-281 33c-47 5-94 9-141 12l3 35c47-3 94-7 142-12l-4-35zm-282 22c-48 3-95 5-142 8l2 35c47-2 94-5 142-8l-2-35zm-283 13c-49 2-96 4-142 5l1 35c46-1 93-3 142-4l-1-36zm-284 8c-50 1-97 2-142 2l1 36c44-1 92-2 142-3l-1-35zm-284 5c-20 0-39 1-57 1-28 1-56 1-85 2l1 35c29 0 57-1 85-2 18 0 37-1 57-1l-1-35zm-283 6c-47 1-94 3-142 3l1 36c47-1 94-2 142-3l-1-36zm-283 6c-47 1-95 2-142 3l1 35c47-1 94-2 141-3l0-35zm-283 5c-48 1-95 1-142 2l0 35c48 0 95-1 142-2l0-35zm-284 4c-47 0-94 1-141 1l0 35c47 0 95-1 142-1l-1-35zm-283 2c-47 1-94 1-141 1l0 36c47-1 94-1 141-1l0-36zm-283 2c-47 0-94 1-142 1l1 35c47 0 94 0 141-1l0-35zm-283 1c-47 0-95 0-142 0l0 36c47 0 95-1 142-1l0-35zm-283 0c-48 0-95 0-142 0l0 35c47 0 94 0 142 1l0-36zm-284 0c-47-1-94-1-141-1l0 35c47 1 94 1 141 1l0-35zm-283-2c-47 0-94 0-141-1l-1 36c47 0 95 0 142 1l0-36zm-283-2c-47 0-94-1-142-1l0 35c47 1 94 1 142 1l0-35zm-283-3c-47 0-95-1-142-1l0 35c47 1 94 1 141 2l1-36zm-283-3c-48 0-95-1-142-2l-1 36c48 0 95 1 142 1l1-35zm-284-4c-47 0-94-1-141-2l-1 36c47 0 95 1 142 2l0-36zm-283-4c-47-1-94-1-142-2l0 35c47 1 94 2 142 2l0-35zm-283-5c-47 0-95-1-142-2l0 35c47 1 94 2 141 3l1-36zm-283-5c-47-1-95-2-142-3l-1 36c48 1 95 2 142 2l1-35zm-284-5c-47-1-94-2-141-3l-1 35c47 1 95 2 142 3l0-35zm-283-6c-47-1-94-2-141-3l-1 36c47 1 94 1 142 2l0-35zm-283-5c-47-1-94-2-141-3l-1 35c47 1 94 2 141 3l1-35zm-283-6c-47-1-94-2-142-3l0 35c47 1 94 2 141 3l1-35zm-283-7c-47-1-95-2-142-3l-1 35c48 2 95 3 142 4l1-36zm-283-6c-48-1-95-3-142-4l-1 36c47 1 95 2 142 3l1-35zm-283-8c-48-1-95-2-142-3l-1 35c47 1 94 2 142 4l1-36zm-284-8c-47-1-94-2-141-4l-1 35c47 2 94 3 141 5l1-36zm-283-9c-47-1-94-3-141-4l-1 35c47 1 94 3 141 5l1-36zm-283-10c-47-1-94-3-141-5l-2 35c48 2 95 4 142 6l1-36zm-283-11c-47-2-94-4-141-6l-2 35c47 2 95 5 142 6l1-35zm-283-12c-47-2-94-5-141-7l-2 35c47 3 95 5 142 7l1-35zm-282-14c-48-3-95-5-142-8l-2 35c47 3 95 6 142 8l2-35zm-283-16c-47-2-94-5-141-8l-3 35c47 3 95 6 142 8l2-35zm-283-17c-3 0-7 0-10-1-42-2-86-5-131-8l-2 36c45 2 89 5 131 7 3 1 6 1 10 1l2-35zm-283-17c-46-3-93-6-141-9l-3 35c49 4 96 7 142 9l2-35 0 0zm-282-21c-46-4-93-9-140-14l-5 35c48 5 95 10 142 14l3-35zm-280-33c-47-8-93-16-139-25l-7 35c46 9 93 17 140 24l6-34zm-276-55c-47-12-92-25-135-39l-11 33c44 15 90 28 137 40l9-34zm-267-88c-43-19-85-40-125-62l-17 31c41 23 84 44 128 63l14-32zm-240-139c-25-19-47-39-69-60-11-11-22-22-32-34l-27 22c11 13 23 26 35 37 22 22 46 43 71 63l22-28zm-175-209c-19-42-33-86-41-130l-35 6c9 48 24 94 44 139l32-15zm-44-266c6-45 18-88 38-130l-32-15c-21 45-35 92-41 140l35 5zm115-242c29-32 64-61 105-87l-19-30c-43 28-81 59-112 93l26 24zm230-141c40-11 86-20 136-27l-4-35c-52 7-99 16-142 28l10 34zm276-42c46-3 93-5 141-7l-1-35c-48 2-96 4-142 7l2 35zm282-10c35 0 69 0 103 0 13 0 26 0 39 0l0-35c-13 0-26 0-39 0-34 0-69 0-103 0l0 35zm283 0c6 0 12 0 18 0 45 0 86 0 124-1l0-35c-38 1-80 1-124 1-6 0-12 0-18 0l0 35zm285-9c52-5 99-12 142-21l-7-35c-42 9-88 16-138 21l3 35zm281-60c53-20 96-43 129-69l-22-28c-29 24-69 45-120 64l13 33zm211-196c1-9 2-17 2-26 0-41-15-82-41-120l-29 21c23 33 35 67 35 99 0 7-1 14-2 21l35 5zm-145-247c-37-26-80-49-128-70l-14 33c47 19 87 42 121 66l21-29zm-264-116c-44-12-91-22-141-29l-5 35c49 7 94 16 137 28l9-34zM2184 5154c-23-1-47-2-71-2l0 35c24 0 47 1 70 2l1-35z" class="colordcedfa svgShape"></path><path fill="#f1f6fe" d="M14001 3391l-214 -1131c-13,-67 -94,-96 -146,-51l-872 751c-52,45 -36,129 28,152l1087 380c65,23 130,-33 117,-101z" class="colorf6fbfe svgShape"></path><path fill="#000000" d="M12972 3000l845 296 -167 -879 -678 583zm864 374c-6,0 -12,-1 -18,-3l-894 -313c-18,-6 -32,-22 -36,-42 -3,-19 4,-39 19,-52l717 -618c15,-12 36,-16 55,-10 18,7 32,23 36,42l176 930c3,20 -4,40 -19,53 -10,8 -23,13 -36,13z" class="colorc6e3f7 svgShape"></path><path fill="#000000" d="M13448 2994l0 0c-17-6-26-24-21-41l89-311c8-28 39-44 67-34 29 10 43 41 32 69l-125 298c-6 17-25 25-42 19zM13455 3079c-6 18-26 27-44 21-18-6-27-26-21-44 7-17 26-27 44-20 18 6 27 25 21 43z" class="colorc6e3f7 svgShape"></path><path fill="#f1f6fe" d="M2045 4789l-703 -350c-42,-21 -91,12 -88,59l48 784c3,47 56,73 95,47l655 -434c39,-26 35,-85 -7,-106z" class="colorf6fbfe svgShape"></path><path fill="#000000" d="M1408 5187l509 -337 -546 -272 37 609zm560 -315c-3,3 -6,6 -9,8l-539 357c-11,8 -26,9 -38,3 -12,-6 -20,-18 -21,-32l-40 -645c0,-13 6,-26 17,-34 12,-7 26,-8 38,-2l579 288c12,6 20,18 21,32 0,9 -3,18 -8,25z" class="colorc6e3f7 svgShape"></path><path fill="#000000" d="M1601 4926l0 0c-10 7-24 4-31-5l-132-177c-12-16-8-40 9-51 17-11 40-6 51 12l110 190c7 11 4 24-7 31zM1650 4958c7 10 4 25-6 32-11 7-26 4-33-7-7-10-4-25 7-32 11-7 25-4 32 7z" class="colorc6e3f7 svgShape"></path><path fill="#bb6f0d" d="M2591 6312l-18 0c0 22-18 41-41 41-22 0-41-19-41-41 0-23 19-41 41-41 23 0 41 18 41 41l18 0 18 0c0-42-35-76-77-76-42 0-76 34-76 76 0 42 34 76 76 76 42 0 77-34 77-76l-18 0zM11284 5228l-17 0c0 23-19 41-41 41-23 0-41-18-41-41 0-22 18-41 41-41 22 0 41 19 41 41l17 0 18 0c0-42-34-76-76-76-42 0-77 34-77 76 0 42 35 76 77 76 42 0 76-34 76-76l-18 0zM6672 3587l-18 0c0 23-18 41-41 41-22 0-41-18-41-41 0-23 19-41 41-41 23 0 41 18 41 41l18 0 18 0c0-42-35-76-77-76-42 0-76 34-76 76 0 42 34 76 76 76 42 0 77-34 77-76l-18 0zM6602 8041l-18 0c0 23-18 41-41 41-23 0-41-18-41-41 0-23 18-41 41-41 23 0 41 18 41 41l18 0 17 0c0-42-34-76-76-76-42 0-76 34-76 76 0 42 34 76 76 76 42 0 76-34 76-76l-17 0zM7890 4592l0 133c0 10 8 18 18 18 10 0 18-8 18-18l0-133c0-9-8-17-18-17-10 0-18 8-18 17z" class="colordcedfa svgShape"></path><path fill="#bb6f0d" d="M7974 4641l-132 0c-10 0-18 8-18 18 0 9 8 17 18 17l132 0c10 0 18-8 18-17 0-10-8-18-18-18zM10268 2900l0 132c0 10 8 18 18 18 10 0 18-8 18-18l0-132c0-10-8-18-18-18-10 0-18 8-18 18z" class="colordcedfa svgShape"></path><path fill="#bb6f0d" d="M10352 2948l-132 0c-10 0-18 8-18 18 0 10 8 17 18 17l132 0c10 0 18-7 18-17 0-10-8-18-18-18zM13947 6474l0 132c0 10 8 18 18 18 10 0 18-8 18-18l0-132c0-10-8-18-18-18-10 0-18 8-18 18z" class="colordcedfa svgShape"></path><path fill="#bb6f0d" d="M14031 6522l-132 0c-10,0 -18,8 -18,18 0,10 8,18 18,18l132 0c10,0 18,-8 18,-18 0,-10 -8,-18 -18,-18z" class="colordcedfa svgShape"></path><path fill="#3b8af2" d="M9097 10261c0,0 -246,106 -246,158 0,30 339,-13 359,-33 33,-33 -13,-120 -13,-120l-100 -5z" class="color333a74 svgShape"></path><path fill="#f7d19f" d="M9082 10114l15 152c0,0 9,24 43,27 35,3 57,-27 57,-27l-12 -190 -103 38z" class="colorf7b78f svgShape"></path><path fill="#3b8af2" d="M9512 6637c90,361 57,545 -75,817 -79,917 -135,1830 -242,2724l-113 7c-258,-871 -495,-2172 -464,-3361l894 -187z" class="color333a74 svgShape"></path><path fill="#ffffff" d="M9448 6764c28,73 38,154 38,232 0,11 0,22 0,32 -5,135 -60,259 -96,390 -49,175 -52,348 -66,525 -20,279 -41,557 -62,835 -35,454 -70,907 -105,1361 -1,13 -2,27 -3,40l17 2c1,-14 2,-27 4,-41 35,-453 70,-907 104,-1361 21,-278 42,-556 63,-834 13,-178 17,-351 65,-523 36,-129 92,-254 96,-393 1,-11 1,-22 1,-33 0,-80 -10,-163 -39,-238l-17 6z" class="color1e5ca2 svgShape"></path><path fill="#3b8af2" d="M10081 10297c0,0 -247,105 -247,157 0,31 339,-13 360,-33 33,-33 -13,-120 -13,-120l-100 -4z" class="color333a74 svgShape"></path><path fill="#f7d19f" d="M10065 10150l16 151c0,0 8,25 42,27 35,3 58,-27 58,-27l-13 -190 -103 39z" class="colorf7b78f svgShape"></path><path fill="#3b8af2" d="M10332 6606c114,355 93,540 -20,821 -19,920 -82,1881 -130,2780l-117 0c-314,-852 -651,-2166 -699,-3355l966 -246z" class="color333a74 svgShape"></path><path fill="#ffffff" d="M10268 6757l2 3c7,19 36,104 36,235 0,127 -27,297 -128,494l-1 2 0 1c-26,409 -39,2715 -39,2715l17 0c0,0 1,-36 1,-100 3,-447 16,-2257 38,-2614l-9 0 8 4c103,-199 131,-373 131,-502 0,-153 -39,-245 -40,-245l-16 7z" class="color1e5ca2 svgShape"></path><path fill="#ffffff" d="M9943 6855c24,37 62,63 101,79 40,16 81,22 122,27 39,5 79,9 118,9 10,0 20,0 31,-1l-1 -18c-10,1 -20,1 -30,1 -38,0 -77,-3 -115,-8 -41,-5 -81,-12 -118,-27 -37,-15 -72,-38 -93,-71l-15 9z" class="color1e5ca2 svgShape"></path><path fill="#ffffff" d="M9961 6915c44,39 99,63 155,76 56,13 113,16 170,16l0 -17c-56,-1 -112,-4 -166,-16 -54,-13 -107,-36 -147,-72l-12 13z" class="color1e5ca2 svgShape"></path><path fill="#f7d19f" d="M8986 4892c-392,682 -814,1300 -1065,2047l-74 -40c19,-693 244,-1700 538,-2328l601 321z" class="colorf7b78f svgShape"></path><path fill="#e3edfd" d="M8795 4179c0,0 -122,34 -264,129 -135,89 -236,222 -305,368 -69,146 -107,304 -132,464 0,0 164,82 353,105 188,24 388,0 388,0l-40 -1066z" class="colore3f3fd svgShape"></path><path fill="#e3edfd" d="M8502 4582c-42,739 -10,1498 9,2216 0,0 257,68 883,68 623,0 1031,-189 1031,-189 -121,-738 -217,-1644 -513,-2251 0,0 -333,-360 -662,-375 -67,-3 -133,21 -196,51 -46,21 -259,73 -259,73l-293 407z" class="colore3f3fd svgShape"></path><path fill="#a9c2ea" d="M8490 4647c-17,143 -17,581 -17,581l18 0c0,0 0,-27 0,-70 1,-130 4,-403 16,-509l-17 -2z" class="colora9c8ea svgShape"></path><path fill="#c6dafa" d="M9130 7118c41,-5 80,-7 118,-7 219,1 404,70 568,185 247,172 442,451 595,735 76,141 142,284 200,414 57,131 107,249 150,344 123,265 316,470 549,625 350,233 789,358 1240,428 451,69 915,82 1315,82 237,0 453,-5 627,-5 454,0 813,56 1052,135 120,39 209,85 262,126 27,21 45,40 54,55 10,16 12,25 12,32 0,5 -1,10 -5,18 -6,12 -21,30 -49,51 -29,20 -71,42 -126,63 -45,18 -68,68 -51,114 17,46 68,68 114,51 87,-33 156,-71 207,-119 26,-23 47,-50 62,-80 16,-30 24,-64 24,-98 0,-46 -15,-89 -39,-126 -21,-33 -48,-62 -80,-89 -57,-47 -130,-88 -219,-124 -133,-56 -303,-101 -507,-134 -203,-32 -442,-51 -711,-51 -177,0 -392,4 -627,4 -528,1 -1163,-23 -1715,-166 -276,-72 -531,-173 -742,-314 -212,-141 -379,-320 -487,-552 -55,-120 -124,-290 -211,-478 -130,-281 -300,-601 -534,-856 -118,-128 -252,-239 -406,-319 -154,-80 -329,-127 -522,-127 -45,0 -91,2 -137,8 -49,5 -83,49 -78,97 5,48 49,83 97,78z" class="colorc6e7fa svgShape"></path><path fill="#f89d25" d="M9481 7090c0,538 -407,862 -755,862l-570 0 0 -1724 570 0c348,0 755,325 755,862z" class="colorf8af25 svgShape"></path><path fill="#eb911b" d="M9187 7090c0,525 -311,951 -695,951l-629 0 0 -1902 629 0c384,0 695,426 695,951z" class="coloreb821b svgShape"></path><path fill="#ea8c10" d="M9187 7083c-1,-96 -12,-189 -32,-276 57,-79 114,-158 171,-236 56,80 99,174 126,280 -80,77 -168,168 -265,232z" class="colorf2911b svgShape"></path><path fill="#d37d0e" d="M8985 7159c-4,0 -7,0 -10,-2 -20,-9 2,-34 2,-48 -13,13 -30,22 -48,25 74,-110 150,-219 226,-327 20,87 31,180 32,276 -35,22 -70,42 -106,56 1,-8 2,-19 9,-33 -15,14 -33,39 -53,43 -2,-1 -5,-1 -8,-1 -7,0 -15,3 -22,6 -8,3 -15,5 -22,5z" class="colore96b1f svgShape"></path><path fill="#fda93a" d="M8603 7090c0,525 -311,951 -695,951 -384,0 -695,-426 -695,-951 0,-525 311,-951 695,-951 384,0 695,426 695,951z" class="colorfdca3a svgShape"></path><path fill="#eb911b" d="M7966 7427c0 78-53 141-119 141-66 0-119-63-119-141 0-78 53-141 119-141 66 0 119 63 119 141zM7966 6753c0 78-53 141-119 141-66 0-119-63-119-141 0-78 53-141 119-141 66 0 119 63 119 141z" class="coloreb821b svgShape"></path><path fill="#f7d19f" d="M10102 5127c0,0 45,449 -156,823 -172,319 -513,733 -789,961l-66 -17c96,-368 399,-1021 417,-1267 19,-245 15,-529 19,-665l575 165z" class="colorf7b78f svgShape"></path><path fill="#e3edfd" d="M9250 4051c0,0 369,25 584,207 306,258 351,765 351,882 -92,100 -294,105 -442,105 -147,0 -255,-70 -255,-70l-30 -559 -208 -565z" class="colore3f3fd svgShape"></path><path fill="#f7d19f" d="M9118 6840c-42,4 -83,24 -118,52 -33,25 -73,68 -69,87 5,20 58,-19 64,-11 7,8 -90,155 -72,166 18,11 101,-122 101,-122 0,0 -80,142 -49,145 26,3 97,-132 97,-132 0,0 -60,121 -40,125 21,5 77,-115 77,-115 0,0 -46,102 -28,104 9,1 54,-50 72,-112 19,-61 41,-113 24,-161l-59 -26z" class="colorf7b78f svgShape"></path><polygon fill="#a9c2ea" points="9495 4675 9495 5184 9512 5184 9512 4675" class="colora9c8ea svgShape"></polygon><path fill="#3b8af2" d="M8484 3582c-2,22 -3,44 -3,66 0,48 6,98 34,137 19,27 48,47 79,56 23,6 52,4 62,-18 3,-7 4,-16 4,-24 -1,-82 -17,-164 -47,-240l-129 23z" class="color333a74 svgShape"></path><path fill="#f7d19f" d="M9041 3628c-31,-124 -131,-297 -293,-262 -102,22 -196,91 -226,188 -36,116 22,252 92,346 25,35 56,69 95,89 94,49 221,9 285,-72 64,-81 72,-191 47,-289z" class="colorf7b78f svgShape"></path><path fill="#f7d19f" d="M8814 3951l53 194 -72 34c0,0 55,73 164,58 221,-32 291,-186 291,-186l-125 -13 -139 -236 -172 149z" class="colorf7b78f svgShape"></path><path fill="#3b8af2" d="M9149 3493c-15,-85 -76,-157 -149,-202 -132,-79 -318,-86 -435,24 -66,62 -186,284 -43,328 45,13 91,-14 129,-40 40,-26 79,-53 119,-79 14,-9 29,-19 46,-20 28,-1 51,23 61,49 10,26 11,55 18,82 4,19 13,39 29,50 17,10 43,7 52,-11 5,-12 1,-27 1,-40 0,-14 8,-31 21,-30 5,0 10,3 14,6 34,26 23,80 34,122 2,6 -10,91 -6,96 110,-26 121,-274 109,-335z" class="color333a74 svgShape"></path><path fill="#f7d19f" d="M8987 3615c-3,-16 12,-30 28,-32 15,-2 31,6 43,16 20,18 35,43 36,70 0,21 -8,41 -20,59 -8,12 -18,24 -31,28 -18,6 -38,-2 -50,-16l-6 -125z" class="colorf7b78f svgShape"></path><path fill="#3b8af2" d="M5058 10256c0,0 238,40 245,92 3,30 -334,66 -357,48 -36,-28 9,-134 9,-134l103 -6z" class="color333a74 svgShape"></path><path fill="#f7d19f" d="M5039 10110l20 150c0,0 -5,26 -39,33 -34,7 -60,-20 -60,-20l-28 -187 107 24z" class="colorf7b78f svgShape"></path><path fill="#3b8af2" d="M4150 6683c-43,370 -45,548 120,801 79,358 199,725 290,1091 -39,438 235,1135 383,1633l107 -18c143,-896 196,-2271 67,-3474l-967 -33z" class="color333a74 svgShape"></path><path fill="#ffffff" d="M4211 7187c0,0 6,20 17,56 40,125 138,438 226,727 44,145 85,284 116,391 15,53 28,98 36,132 5,17 8,30 10,41 3,11 4,18 4,20 0,72 11,314 29,472 17,145 91,429 160,678 69,248 135,461 135,461l17 -5c0,-1 -17,-53 -42,-138 -75,-252 -228,-784 -252,-998 -18,-157 -30,-400 -30,-470 0,-6 -1,-15 -4,-29 -23,-101 -124,-436 -220,-747 -95,-311 -185,-596 -185,-596l-17 5z" class="color1e5ca2 svgShape"></path><polygon fill="#ffffff" points="4940 10228 4923 10163 5061 10158 5062 10218" class="color1e5ca2 svgShape"></polygon><path fill="#3b8af2" d="M3208 10263c0,0 186,135 170,182 -10,27 -313,-85 -325,-110 -19,-39 64,-110 64,-110l91 38z" class="color333a74 svgShape"></path><path fill="#f7d19f" d="M3254 10131l-47 136c0,0 -15,20 -47,12 -32,-8 -43,-42 -43,-42l55 -172 82 66z" class="colorf7b78f svgShape"></path><path fill="#3b8af2" d="M3350 6606c-113,355 -92,540 21,821 7,336 10,676 14,1016 -239,599 -277,1137 -247,1708l116 43c0,0 687,-1199 814,-1672 145,-544 227,-1125 249,-1670l-967 -246z" class="color333a74 svgShape"></path><path fill="#ffffff" d="M3370 6680c0,1 -46,135 -46,320 0,121 20,265 86,406l8 -4 -9 0c0,83 39,667 39,931 0,52 -1,92 -5,111 -5,29 -36,117 -75,232 -38,115 -85,258 -123,399 -42,157 -67,419 -82,642 -14,223 -19,407 -19,407l18 0c0,0 1,-46 4,-119 9,-221 34,-693 96,-925 38,-141 84,-283 123,-399 39,-115 70,-202 75,-234 4,-22 6,-62 6,-114 0,-265 -40,-850 -39,-931l0 -2 -1 -2c-65,-138 -84,-278 -84,-398 0,-91 11,-169 23,-225 5,-28 11,-51 15,-66 4,-15 7,-23 7,-23l-17 -6z" class="color1e5ca2 svgShape"></path><polygon fill="#ffffff" points="3117 10151 3135 10074 3283 10142 3254 10208" class="color1e5ca2 svgShape"></polygon><path fill="#eeb366" d="M5273 3867l-92 -79c0,0 0,-139 0,-164 0,-26 -35,-178 -66,-178 -31,0 -38,-38 -54,-23 -15,16 13,188 0,201 -12,12 -29,-82 -40,-70 -12,11 -13,81 -13,116 0,36 28,101 56,129 28,28 153,163 153,163l56 -95z" class="coloree9666 svgShape"></path><path fill="#e3edfd" d="M5227 3814l-78 88c0,0 306,405 403,541 -88,-31 -215,-109 -288,-157 -144,-94 -289,-144 -388,-144 -212,0 -101,698 145,800 466,70 988,26 1068,-138 119,-243 -564,-815 -862,-990z" class="colore3f3fd svgShape"></path><path fill="#a9c2ea" d="M5544 4446c0,0 15,41 43,89 28,48 69,103 123,132l8 -16c-49,-25 -89,-78 -116,-125 -14,-23 -24,-45 -31,-61 -4,-8 -6,-14 -8,-18 -2,-5 -3,-7 -3,-7l-16 6z" class="colora9c8ea svgShape"></path><path fill="#e3edfd" d="M3805 4327c-555,624 -547,1697 -547,2426 0,0 408,279 1031,279 625,0 883,-154 883,-154 19,-739 -113,-1058 9,-2280 0,0 -199,-456 -305,-456 -106,0 -521,-41 -521,-41l-550 226z" class="colore3f3fd svgShape"></path><path fill="#a9c2ea" d="M5159 4959c0,0 0,-13 2,-34 3,-31 9,-79 19,-123 9,-45 24,-86 41,-103l-13 -12c-15,15 -25,39 -34,67 -26,84 -33,204 -33,204l18 1z" class="colora9c8ea svgShape"></path><path fill="#f7d19f" d="M4539 3633c20,-126 110,-306 275,-286 103,13 183,85 241,168 50,72 31,141 -39,322 -23,37 -71,104 -109,128 -90,56 -219,28 -290,-47 -71,-75 -95,-185 -78,-285z" class="colorf7b78f svgShape"></path><path fill="#3b8af2" d="M4561 3618c24,-4 0,-19 10,2 7,14 9,18 23,22 13,5 13,17 24,25 17,13 32,-5 39,-19 13,-28 13,-60 10,-90 -3,-23 -10,-60 12,-76 19,-13 60,6 79,11 30,9 59,19 88,28 71,21 146,40 221,30 65,-9 133,-43 164,-103 37,-73 -38,-167 -114,-167 -20,0 -39,8 -58,12 -8,1 -15,2 -22,0 -17,-5 -24,-24 -34,-38 -28,-44 -76,-58 -126,-52 -57,6 -105,33 -159,48 -28,8 -53,0 -81,1 -30,1 -60,20 -73,47 -23,-24 -74,35 -87,51 -57,69 -74,167 -76,254 -1,76 11,186 94,216 36,13 58,20 59,-12 -15,-33 -19,-100 -22,-128 -3,-27 5,-61 31,-71l-2 9z" class="color333a74 svgShape"></path><path fill="#f7d19f" d="M4831 3934l-18 190 63 18c0,0 -33,85 -142,100 -222,29 -379,-141 -379,-141l74 -15 112 -353 290 201z" class="colorf7b78f svgShape"></path><path fill="#f7d19f" d="M4598 3616c1,-16 -15,-29 -31,-29 -16,0 -30,9 -42,20 -62,62 16,212 78,135l-5 -126z" class="colorf7b78f svgShape"></path><path fill="#3b8af2" d="M5016 3834c-10,23 -49,33 -71,35 -104,12 -191,-56 -291,-68 -19,-3 -42,-4 -57,9 -14,13 -15,34 -15,53 -1,23 -1,47 1,70 2,20 5,40 16,58 45,75 195,87 272,83 31,-2 63,-8 87,-26 34,-26 42,-71 54,-111 16,-49 4,-103 4,-103z" class="color333a74 svgShape"></path><path fill="#f7d19f" d="M4942 3916c-3,-2 -7,-4 -11,-4 -49,0 -76,-12 -114,-15 -6,0 -13,-1 -19,1 -14,4 -22,18 -24,32 -3,14 4,24 16,30 23,12 48,16 73,16 22,1 51,3 69,-12 10,-8 25,-37 10,-48z" class="colorf7b78f svgShape"></path><path fill="#c6dafa" d="M4488 6583c-58,-3 -115,-5 -170,-5 -287,0 -547,40 -783,119 -355,117 -655,322 -909,600 -254,278 -464,628 -646,1043 -312,707 -678,1088 -1012,1296 -335,207 -642,242 -844,242 -12,0 -23,0 -34,0 -49,-1 -89,38 -90,86 -1,49 38,89 86,90 13,1 25,1 38,1 223,0 568,-41 937,-270 369,-228 758,-642 1080,-1374 236,-537 515,-951 865,-1229 175,-140 368,-246 584,-318 217,-72 457,-109 728,-109 52,0 106,1 160,4 49,2 91,-35 93,-84 3,-48 -35,-90 -83,-92z" class="colorc6e7fa svgShape"></path><path fill="#f89d25" d="M4017 6770c45,535 477,825 824,796l568 -48 -143 -1717 -569 47c-346,29 -724,386 -680,922z" class="colorf8af25 svgShape"></path><path fill="#eb911b" d="M4310 6745c44,524 389,922 771,890l627 -52 -158 -1895 -627 52c-382,32 -657,482 -613,1005z" class="coloreb821b svgShape"></path><path fill="#fda93a" d="M4892 6697c44,523 389,921 772,890 382,-32 656,-482 613,-1006 -44,-523 -389,-922 -771,-890 -383,32 -657,482 -614,1006z" class="colorfdca3a svgShape"></path><path fill="#f89d25" d="M5555 6980c6 77 65 136 130 130 66-5 114-72 107-150-6-78-65-137-130-131-66 5-114 73-107 151zM5499 6308c6 78 65 136 130 131 66-6 114-73 107-151-6-78-65-136-130-131-66 6-114 73-107 151z" class="colorf8af25 svgShape"></path><path fill="#e9ecf2" d="M5637 6396c71-6 886-74 886-74 54-4 94-52 90-107-5-55-52-95-106-91 0 0-819 69-886 74-68 6-55 204 16 198zM5693 7068c71-6 886-74 886-74 54-5 95-53 90-107-5-55-52-96-106-91 0 0-819 68-886 74-68 5-55 204 16 198z" class="colore9edf2 svgShape"></path><path fill="#f7d19f" d="M3509 5127c0,0 -44,449 157,823 172,319 513,733 789,961l66 -17c-96,-368 -399,-1021 -418,-1267 -19,-245 -14,-529 -19,-665l-575 165z" class="colorf7b78f svgShape"></path><path fill="#e3edfd" d="M4355 4101c0,0 -390,22 -614,192 -387,292 -311,1078 -198,1462 113,384 655,961 830,1085 29,0 113,-7 110,-74 -97,-299 -373,-1087 -373,-1087l44 -1063 201 -515z" class="colore3f3fd svgShape"></path><path fill="#f7d19f" d="M4494 6840c42,4 83,24 118,52 33,25 72,68 68,87 -4,20 -57,-19 -64,-11 -6,8 91,155 73,166 -18,11 -101,-122 -101,-122 0,0 80,142 49,145 -26,3 -97,-132 -97,-132 0,0 60,121 39,125 -20,5 -76,-115 -76,-115 0,0 45,102 28,104 -9,1 -54,-50 -73,-112 -18,-61 -40,-113 -23,-161l59 -26z" class="colorf7b78f svgShape"></path><path fill="#a9c2ea" d="M4228 5989c-62-179-109-313-109-313l-9 3 9 1 82-892-18-2-82 894 1 2c0 0 12 34 31 90 20 55 47 134 78 223l17-6zM3445 5004c0 8 0 17 0 26 0 238 29 522 89 727 56 188 210 417 375 620l13-11c-164-202-317-431-371-614-59-202-88-486-88-722 0-9 0-18 0-26l-18 0z" class="colora9c8ea svgShape"></path><path fill="#f7d19f" d="M11785 3690l63 -43c0,0 29,-136 45,-161 17,-26 49,-79 85,-104 16,-10 85,-50 103,-32 9,9 -21,88 -34,101 -14,14 -53,74 -47,93 6,19 39,-23 47,-30 8,-8 18,-18 22,-8 6,17 -29,112 -57,140 -28,27 -72,53 -103,53l-98 86 -26 -95z" class="colorf7b78f svgShape"></path><path fill="#3b8af2" d="M12539 3241c104,61 168,176 193,291 4,21 8,43 22,59 12,12 28,18 43,26 86,39 152,117 182,206 13,38 3,92 18,125 18,39 86,48 122,60 109,37 189,146 190,261 2,114 -76,226 -184,264 29,41 33,96 19,144 -13,48 -42,90 -76,128 -137,155 -348,238 -555,229 -59,-3 -119,-13 -174,-35 -63,-26 -118,-67 -170,-109 -64,-51 -127,-106 -162,-180 -34,-74 -32,-171 27,-228 -68,14 -139,-22 -177,-80 -38,-57 -44,-131 -29,-197 15,-67 50,-128 91,-183 29,-38 62,-77 68,-125 10,-80 -34,-151 -46,-230 -18,-123 -12,-229 93,-294 34,-88 75,-156 172,-182 116,-30 230,-11 333,50z" class="color333a74 svgShape"></path><path fill="#c8dcfb" d="M12286 4178c-352,-93 -755,53 -845,52 123,-122 349,-396 427,-491 0,-65 -40,-83 -40,-83 0,0 -965,499 -868,825 101,340 1047,173 1123,271l203 -574z" class="colorc8e8fb svgShape"></path><path fill="#f7d19f" d="M12355 7345c-1,29 -127,649 -137,715 -27,194 76,388 66,688 -12,365 -168,1346 -187,1390 -20,43 -115,3 -115,3 0,0 -273,-1316 -288,-1854 -13,-444 52,-1404 52,-1404l609 462z" class="colorf7b78f svgShape"></path><path fill="#3b8af2" d="M12106 10155c0,0 16,33 15,48 -2,41 -3,69 -3,69l-18 1 -6 -33c0,0 -47,8 -95,39 -23,16 -140,14 -158,5 -21,-11 -15,-30 -8,-38 7,-8 133,-63 133,-63l140 -28z" class="color333a74 svgShape"></path><path fill="#f7d19f" d="M11982 10141c-10 25-110 80-101 87 9 7 67 8 132-14 59-19 92-41 94-57l-11-41-114 25zM13230 7371c0 29-107 652-114 719-21 194 87 385 86 686-1 365-126 1350-145 1394-18 44-114 7-114 7 0 0-313-1307-344-1845-27-443 9-1404 9-1404l622 443z" class="colorf7b78f svgShape"></path><path fill="#3b8af2" d="M13068 10187c0,0 17,32 16,48 -1,40 -1,68 -1,68l-18 2 -7 -33c0,0 -47,10 -94,43 -23,16 -140,18 -158,9 -20,-10 -15,-29 -9,-38 7,-8 132,-67 132,-67l139 -32z" class="color333a74 svgShape"></path><path fill="#f7d19f" d="M12943 10177c-9,25 -107,83 -98,90 9,7 68,5 131,-18 58,-21 91,-44 92,-60l-12 -41 -113 29z" class="colorf7b78f svgShape"></path><path fill="#39659f" d="M12912 5777c0,0 280,183 386,623 144,592 -68,1753 -68,1753 0,0 -438,128 -914,124 -476,-4 -759,-165 -760,-194 -1,-29 -71,-907 26,-1503 109,-669 386,-850 386,-850l944 47z" class="color39549f svgShape"></path><path fill="#c8dcfb" d="M12533 4166c43,-16 156,24 366,104 93,100 133,320 153,514 -54,472 -115,730 -86,890 7,38 42,66 36,119 -11,109 -190,125 -528,164 -339,38 -644,-116 -626,-164 19,-48 76,-90 86,-122 9,-32 36,-436 0,-484 -37,-48 -131,-187 -131,-321 0,-190 104,-275 172,-379 114,-173 200,-282 311,-309 176,-44 247,-12 247,-12z" class="colorc8e8fb svgShape"></path><path fill="#589af0" d="M11954 4407c0,0 1,3 1,7 0,5 1,12 1,21 0,29 -5,75 -30,115 -2,4 -9,13 -19,24 -27,34 -74,87 -86,128l16 5c7,-23 30,-55 52,-83 11,-14 23,-27 32,-38 9,-11 16,-20 20,-26 28,-45 32,-95 32,-125 0,-18 -1,-30 -1,-31l-18 3z" class="color81b5e3 svgShape"></path><path fill="#f7d19f" d="M12452 3936c92,-92 107,-266 65,-384 -47,-133 -236,-232 -366,-149 -256,163 3,828 301,533z" class="colorf7b78f svgShape"></path><path fill="#f7d19f" d="M12276 3919l5 284c0,0 -11,63 100,67 152,5 152,-104 152,-104l-88 -292 -169 45z" class="colorf7b78f svgShape"></path><path fill="#3b8af2" d="M12391 3278c-31,-21 -65,-22 -97,-3 -20,12 -34,32 -55,41 -15,7 -32,8 -48,12 -74,20 -144,76 -175,146 -31,71 -21,186 37,236 -2,-54 14,-133 43,-179 16,-24 40,-48 68,-45 32,4 50,38 73,60 35,34 85,41 131,48 52,8 93,17 118,68 12,23 18,47 24,71 7,29 14,58 16,88 1,18 0,37 6,54 11,35 47,57 82,68 26,9 71,18 88,-13 14,-25 26,-61 31,-89 16,-95 -14,-194 -65,-276 -57,-90 -137,-150 -209,-224 -23,-23 -44,-48 -68,-63z" class="color333a74 svgShape"></path><path fill="#f7d19f" d="M12462 3714c6-21 22-43 44-47 72-11 61 97 33 135-16 22-58 51-77-10l0-78zM13228 5922l-34 73c0 0-128 30-142 53-21 35-53 85-53 113 0 28 2 151 37 151 23 0 74-101 85-115 25-33 126-57 126-144l62-131-81 0z" class="colorf7b78f svgShape"></path><path fill="#c8dcfb" d="M12533 4163c0,0 299,-77 533,71 181,115 649,685 649,1011 0,221 -437,766 -437,766l-73 -52c0,0 42,-428 169,-665 -93,-93 -459,-385 -550,-476l-291 -655z" class="colorc8e8fb svgShape"></path><path fill="#589af0" d="M12770 4794c66,59 238,197 238,197l11 -14c0,0 -43,-34 -94,-76 -51,-42 -111,-91 -143,-120l-12 13z" class="color81b5e3 svgShape"></path><path fill="#f1f6fe" d="M3957 3657l-361 -291c0,0 162,-600 -53,-810 -115,-111 -259,-187 -409,-244 -332,-126 -729,-155 -1026,42 -218,145 -351,394 -411,649 -52,225 -48,481 93,664 63,82 150,144 241,193 286,149 1043,206 1371,-14 91,-61 83,-143 121,-272l434 83z" class="colorf0f8fe svgShape"></path><path fill="#a9c2ea" d="M2242 2944c-34-38-83-57-146-57-64 0-113 19-148 56-34 37-51 91-51 161 0 70 17 124 51 162 35 38 84 57 148 57 62 0 112-19 146-58 35-38 52-92 52-161 0-68-17-122-52-160l0 0zm-240 42c21-26 53-40 94-40 41 0 72 14 93 40 20 27 31 66 31 118 0 53-11 93-31 120-21 26-52 39-93 39-42 0-73-13-94-40-21-27-32-66-32-119 0-52 11-91 32-118l0 0zM2603 3035c-27-30-64-45-110-45-49 0-86 15-113 44-26 29-39 70-39 122 0 33 6 63 18 88 12 25 30 45 53 58 23 14 50 21 79 21 48 0 86-15 112-44 28-30 41-71 41-123 0-50-14-91-41-121l0 0zm-173 40c13-19 33-29 62-29 54 0 82 37 82 110 0 74-28 111-82 111-54 0-81-37-81-111 0-36 6-62 19-81l0 0zM2960 3279c24-30 35-71 35-123 0-52-11-93-34-122-22-29-53-44-93-44-43 0-74 16-96 49l-3 0c-5-22-8-37-10-43l-55 0 0 463 68 0 0-131c0-6-1-22-4-49l4 0c23 29 54 44 95 44 39 0 71-15 93-44l0 0zm-54-205c12 19 19 46 19 81 0 36-7 64-19 83-13 19-31 29-55 29-28 0-48-9-60-26-13-18-19-46-19-85l0-10c0-35 6-60 19-76 12-16 32-24 59-24 24 0 43 10 56 28l0 0zM3262 3186c-5-12-14-21-26-29-12-9-31-19-58-29-31-12-51-22-61-28-9-7-14-16-14-26 0-21 18-31 54-31 24 0 53 7 87 22l22-51c-33-16-69-24-107-24-38 0-68 8-90 23-22 15-33 37-33 64 0 23 6 42 19 56 13 14 38 28 75 43 19 7 34 14 45 19 10 6 18 12 22 17 5 6 7 12 7 20 0 26-21 38-63 38-32 0-67-8-105-26l0 59c26 13 60 20 103 20 43 0 75-9 98-25 23-17 34-41 34-73 0-15-3-28-9-39l0 0zM3400 2893l-80 0 15 295 51 0 14-295zm-72 420c8 8 19 12 32 12 14 0 24-4 32-12 7-8 11-19 11-32 0-14-4-25-11-32-8-8-18-12-32-12-13 0-24 3-32 11-8 7-11 18-11 33 0 14 3 24 11 32l0 0z" class="colora9c8ea svgShape"></path></svg></g></svg>