<svg id="SvgjsSvg1262" width="288" height="288" xmlns="http://www.w3.org/2000/svg" version="1.1" xmlns:xlink="http://www.w3.org/1999/xlink" xmlns:svgjs="http://svgjs.com/svgjs"><defs id="SvgjsDefs1263"></defs><g id="SvgjsG1264"><svg xmlns="http://www.w3.org/2000/svg" width="288" height="288" viewBox="0 0 3037.333 2666.667"><g transform="matrix(.13333 0 0 -.13333 0 2666.667)" fill="#000000" class="color000 svgShape"><path fill="#ffffff" d="M 0,0 H 22780 V 20000 H 0 Z" class="colorfff svgShape"></path><path fill="#cae1f9" d="m 8075.3,13395.6 c -383.65,-725.2 -1282.5,-1002 -2007.63,-618.3 v 0 c -725.13,383.6 -1001.96,1282.5 -618.3,2007.6 383.65,725.1 1282.5,1002 2007.62,618.3 h 0.01 c 725.13,-383.6 1001.96,-1282.5 618.3,-2007.6 z M 9692.48,13123 c -151.69,100.9 -307,196.4 -456.58,300.3 -27.32,19 -51.65,67.9 -48.83,100.5 18.16,210.2 48.42,419.4 65.15,629.8 4.87,61.2 18.51,93.3 77.07,116.7 206.19,82.2 410.17,170 614.89,255.9 33.2,13.9 65.92,29 123.12,54.3 -100.13,314.4 -199.17,625.3 -300.68,944 -263.92,-54.2 -504.64,-99.6 -743.08,-154.8 -84.08,-19.5 -130.04,-10.1 -184.77,67.6 -111.84,158.8 -245.77,302 -366.08,455.1 -18.45,23.5 -26.62,71 -16.18,98.6 79.74,210.7 159.26,421.8 251.6,627 44.32,98.5 21.54,151.2 -66.77,196.3 -33.94,17.3 -61.63,46.9 -92.17,70.9 -152.39,80.6 -304.79,161.3 -457.19,241.9 -19.11,3.7 -39.42,4.4 -57.15,11.5 -185.79,74.5 -150.07,73.2 -254.25,-82.1 -126.93,-189.3 -250.67,-380.7 -359.29,-546.1 -284,24.6 -549.42,47.7 -823.55,71.4 -105.38,251 -215.5,513.3 -326.34,777.4 -334,-47.3 -640.54,-154.6 -941,-299.6 53.85,-259.5 105.71,-512.7 159.43,-765.4 9.64,-45.4 7.05,-72.9 -37.25,-106.5 -173.41,-131.5 -343.71,-267.7 -507.64,-410.7 -47.26,-41.3 -77.83,-41.7 -129.03,-20.6 -211.36,87.3 -424.74,169.6 -636.48,255.9 -52.59,21.5 -86.54,19.6 -125.05,-31.9 -172.69,-231.3 -289.77,-489.5 -385.41,-759.5 -18.93,-53.4 6.87,-76.3 47.3,-102.2 187.04,-119.8 371.17,-244.1 559.01,-362.6 54.13,-34.1 70.78,-63.7 60.49,-133.4 -35.6,-240.9 -57.17,-483.8 -86.24,-745.5 -228.17,-95.8 -487.08,-204.4 -745.91,-313.1 46.72,-340.4 140.17,-655.1 293.12,-954.7 282.86,60.2 558.05,118.7 807.3,171.6 156.87,-178.4 298.39,-348 450.34,-507.7 57.41,-60.3 67.84,-106 35,-181.3 -87.47,-200.4 -167.13,-404.3 -247.86,-607.7 -15.95,-40.2 -47.58,-87 15.2,-119.6 255.37,-132.7 510.6,-265.6 766.02,-398.1 54.29,-28.2 88.3,-9.8 120.7,41.4 120.54,190.4 249.47,375.6 366.73,568 45.24,74.2 94.42,77.3 171.18,67.5 189.58,-24.2 380.66,-44.7 571.44,-47.7 82.23,-1.4 112.5,-22.6 140.75,-95.5 90.74,-234.4 190.7,-465.1 285.08,-692.4 203.77,1.4 757.66,179.1 956.86,304.7 -54.06,249.7 -106.12,502.8 -165.22,754.3 -14.79,62.9 3.73,90.1 51.67,128.3 154.67,123.4 300.6,257.7 454.06,382.6 25.81,21.1 78.45,32.9 108.15,21.5 188.7,-72.4 374.9,-151.4 561.02,-230.4 104.05,-44.1 145.88,-62.3 185.52,-35.4 l 429.22,811.3 c 0.59,65.8 -44.7,96.5 -167.42,178.2" class="colorcae1f9 svgShape"></path><path fill="#ebf3fe" d="m 14891.8,13309.4 c -34.7,83.4 -71.4,168.1 -104.7,254.2 -10.4,26.7 -21.5,34.5 -51.7,35 -70,1.1 -140.1,8.7 -209.7,17.5 -6.9,0.9 -13.2,1.5 -19,1.5 -17.9,0 -31.3,-5.7 -43.9,-26.3 -43,-70.6 -90.3,-138.5 -134.6,-208.4 -8.1,-12.9 -16.5,-20.1 -27.4,-20.1 -5,0 -10.6,1.6 -16.9,4.8 -93.8,48.7 -187.4,97.5 -281.2,146.2 -23,12 -11.4,29.1 -5.6,43.9 29.7,74.6 58.9,149.5 91,223.1 12.1,27.6 8.2,44.4 -12.8,66.5 -55.8,58.7 -107.8,120.9 -165.4,186.4 -91.4,-19.4 -192.5,-40.9 -296.3,-63 -56.1,110 -90.4,225.5 -107.6,350.5 95,39.8 190.1,79.7 273.8,114.9 10.7,96.1 18.6,185.2 31.7,273.7 3.8,25.5 -2.4,36.4 -22.2,48.9 -69,43.5 -136.6,89.2 -205.2,133.1 -14.9,9.5 -24.3,18 -17.4,37.6 35.1,99 78.1,193.8 141.5,278.8 8.8,11.7 16.9,16.4 26.4,16.4 5.8,0 12.2,-1.7 19.5,-4.7 77.7,-31.7 156,-61.9 233.6,-94 7.8,-3.2 14.3,-5 20.4,-5 8.8,0 16.8,3.7 27,12.6 60.2,52.5 122.7,102.5 186.3,150.8 16.3,12.3 17.2,22.4 13.7,39.1 -19.7,92.7 -38.7,185.7 -58.5,280.9 110.3,53.2 222.8,92.6 345.4,110 40.7,-96.9 81.1,-193.2 119.8,-285.4 100.6,-8.7 198.1,-17.1 302.3,-26.2 39.9,60.7 85.3,131 131.9,200.5 22.7,33.8 27.3,47.7 41.6,47.7 9.8,0 24,-6.5 51.7,-17.6 6.6,-2.6 14,-2.9 21,-4.2 56,-29.6 111.9,-59.2 167.9,-88.8 11.2,-8.8 21.3,-19.7 33.8,-26 32.4,-16.6 40.8,-35.9 24.5,-72.1 -33.9,-75.3 -63.1,-152.8 -92.4,-230.1 -3.8,-10.2 -0.8,-27.7 6,-36.3 44.1,-56.2 93.3,-108.7 134.4,-167 14.4,-20.5 27.1,-28 44.6,-28 6.9,0 14.5,1.1 23.2,3.1 87.5,20.3 175.9,37 272.8,56.9 37.2,-117 73.6,-231.1 110.3,-346.5 -21,-9.3 -33,-14.9 -45.2,-20 -75.1,-31.5 -150,-63.7 -225.7,-93.9 -21.5,-8.6 -26.5,-20.4 -28.3,-42.9 -6.1,-77.2 -17.2,-154 -23.9,-231.1 -1,-12 7.9,-30 17.9,-36.9 55,-38.1 112,-73.2 167.6,-110.3 45.1,-29.9 61.7,-41.2 61.5,-65.4 l -157.6,-297.8 c -4.6,-3.2 -9.4,-4.6 -14.9,-4.6 -11.8,0 -27.2,6.6 -53.2,17.6 -68.3,29 -136.6,58 -205.9,84.6 -2.9,1.1 -6.4,1.6 -10.2,1.6 -10.3,0 -22.6,-3.8 -29.5,-9.5 -56.3,-45.9 -109.9,-95.2 -166.7,-140.5 -17.6,-14 -24.4,-24 -18.9,-47.1 21.6,-92.3 40.8,-185.2 60.6,-276.8 -73.1,-46.2 -276.4,-111.4 -351.2,-111.9 m -189.1,1750.3 c -195.5,0 -384.6,-105.5 -482.4,-290.4 v 0 c -140.9,-266.2 -39.3,-596.1 226.9,-737 81.3,-43 168.6,-63.4 254.6,-63.4 195.5,0 384.6,105.5 482.4,290.4 140.8,266.2 39.2,596.1 -227,737 -81.3,43 -168.5,63.4 -254.5,63.4" class="colorebf3fe svgShape"></path><path fill="#3c8f7c" d="m 6133.76,3839.4 c 0,0 -2849.39,1404.9 -3339.42,2137.7 -490.02,732.8 230.31,774.3 230.31,774.3 0,0 -1271.55,1236.6 -1092.66,1757.3 178.9,520.6 837.6,43.1 837.6,43.1 0,0 -817.61,1820 -432.1,2003 718.06,340.8 1725.39,-1617.5 1725.39,-1617.5 0,0 -216.48,850.7 277.98,823.1 745.7,-41.7 714.89,-1966 714.89,-1966 0,0 84.22,737.8 533.67,498.1 806.41,-430 544.34,-4453.1 544.34,-4453.1" class="color3c8f7c svgShape"></path><path fill="#50bfa5" d="m 5751.67,8590.2 c -350.96,194.7 -700.52,-374.5 -700.52,-374.5 0,0 35.41,1503 -710.29,1544.7 -494.46,27.6 -277.98,-823.1 -277.98,-823.1 0,0 -1007.33,1958.3 -1725.39,1617.5 L 6137.04,3870.6 c 26.84,466.8 309.9,4333.8 -385.37,4719.6" class="color50bfa5 svgShape"></path><path fill="#3c8f7c" d="m 6060.12,3822 c 0,0 -2330.42,-289.5 -2933.82,-31.5 -603.39,257.9 -170.97,576.5 -170.97,576.5 0,0 -1295.63,254.7 -1395.59,652.1 -99.96,397.4 497.72,365.7 497.72,365.7 0,0 -1242.343,804.5 -1076.23,1075.3 309.4,504.3 1733.42,-307.8 1733.42,-307.8 0,0 -480.69,442.7 -161.05,626.3 482.06,277 1244.78,-935.7 1244.78,-935.7 0,0 -47.37,298.9 330.35,332 C 4806.46,6234.4 6060.12,3822 6060.12,3822" class="color3c8f7c svgShape"></path><path fill="#50bfa5" d="M4144.02 6392.1c-377.72-33.1-345.64-549.2-345.64-549.2 0 0-776.5 1437.6-1258.57 1160.6-319.64-183.7 58.53-787 58.53-787 0 0-1307.71 747.9-1617.11 243.6L6067.2 3834.9c-172.93 302-1290.13 2612.8-1923.18 2557.2M19460.4 7225.4l125.2 302.5c97.1 222.5 345.6 328.7 555.1 237.3 527.8-230.4 757.2-871.7 512.5-1432.3l-178.9-410c-78.4-179.5-51.1-377.1 54.6-516.4 96-126.5 111.7-302.4 45.1-454.9l-94.4-216.1c-102.1-234-300.8-407.2-536.5-478.7-137.8-41.8-259.6-145.2-323.9-292.7l-133.6-306c-147.7-338.3-525.5-499.8-844-360.8l-181.7 79.3c-318.4 139-456.9 525.9-309.2 864.2 238.8 404.5 219.8 706.4 135.1 911.2-124.4 301-122.9 647.4 11.7 955.8l18.8 43.2c142.1 325.5 416.4 568.4 743.1 672.5 144.3 45.9 294.6 158.1 401 401.9" class="color50bfa5 svgShape"></path><path fill="#96d9c9" d="m 11214.8,1249.8 c -338.2,438.5 -2193.13,2788.1 -3402.59,3179.6 -1335.03,432.2 -76.77,-1284.3 -76.77,-1284.3 0,0 -2368.31,2589.7 -3237.4,2356.2 -796.67,-214 0,-1819.2 0,-1819.2 0,0 -897.28,888.9 -1985.41,888.9 -1059.01,0 739.86,-3152.5 836.91,-3321.2 h 7865.26" class="color96d9c9 svgShape"></path><path fill="#256653" d="M21206.3 10656c0 0-341.4-440.8-542.5-613.7-201-173-392.6-338.6-648.9-888.9-256.3-550.3-248.9-613.3-317-755-68.1-141.7-425.7-696.7-452.7-807.4-27.1-110.8-611-641.2-791.7-911-180.7-269.8-477.2-646.3-516.1-864l52.8 1.1c0 0 157.2 492.2 620.5 918.8 463.2 426.6 436.1 533.9 888.9 703.1 452.7 169.2 873.3 829.7 873.3 829.7 0 0 580.7 688.7 656.6 1099.2 75.9 410.6 267 752.3 176.8 1288.1M20851.9 11538.5c0 0-88.5-321.1-237.9-489.4-149.3-168.2-266.6-264.3-334.1-468.2-67.4-203.9-258-725.8-610.5-920.3-352.6-194.4-572.6-971.5-849.8-1157.6-277.2-186.1-345.9-350.2-399.8-767.4-53.8-417.2-45.9-1014.5-539.4-1677.1l-30.1 200.3c0 0 371.4 553.2 398.3 921.4 26.8 368.2-42.4 950.1 88.5 1191 130.9 240.9-121.5 352.6 128 705 249.6 352.4 215.7 502.9 510.5 789.2 0 0 25.9 10.6 149 282.2 123.2 271.6 703.5 687 956.3 815.9 252.9 129 624.1 343.7 771 575" class="color256653 svgShape"></path><path fill="#3c8f7c" d="M19617.4 10133.7c0 0-354-374.6-422.5-652.8-68.5-278.2-91.1-512.2-308-864.6-217-352.3-18.9-653-141.3-846.9-122.3-194-186.1-442.4-227.9-632.4-41.8-189.9-479.9-748.8-598.2-1055.9-118.2-307.1-61.6-321.3-61.6-321.3 0 0 145.9 407.8 245.3 530.7 99.5 122.9 415.1 553.1 505.8 726.9 90.8 173.7 247.9 262.2 432.4 549.3 184.5 287 404.6 513.8 495.7 960.8 91.2 447 379 874.2 80.3 1606.2M18093.7 6011.5c0 0 246.1 522.8 756.8 461.9 510.7-60.8 780.3-227.3 1225.5 92.9 445.3 320.2 797.9 910.5 935.9 994.2 0 0-155.6 132.1-513.4-74.3-357.7-206.4-612.5-366.8-819.8-487.2-207.4-120.4-321.2 16.1-525.4-47.6-171-53.4-425.1-263.5-541.9-377.4-37.9-37-80.2-69.2-126.3-95.3-41.9-23.9-92.1-53.3-125.1-75.9-66.1-45.2-305.2-384.3-305.2-384.3l38.9-7" class="color3c8f7c svgShape"></path><path fill="#3c8f7c" d="m 17940.8,6149.4 c 0,0 332,632.1 291,988.7 -41,356.6 -352.3,685.9 -289.4,889.3 62.9,203.4 429.1,707.5 333.3,1168.5 0,0 -159.5,-354.3 -250.9,-420.1 -91.4,-65.8 -664.4,-283.6 -678.8,-743.9 -14.5,-460.2 443.3,-675.1 531.9,-832.2 88.5,-157 248.7,-194.1 229.7,-280.5 -19,-86.3 -60.6,-406.6 -185.6,-703.2 l 18.8,-66.6" class="color3c8f7c svgShape"></path><path fill="#327f6b" d="M18237.4 6555.1l411.7 652.8c0 0 277.6 537.5 472.3 994.3 194.8 456.8 496 1931.5 496 1931.5 0 0-354-374.6-422.5-652.8-68.5-278.2-91.1-512.2-308-864.6-217-352.3-18.9-653-141.3-846.9-122.3-194-186.1-442.4-227.9-632.4-41.8-189.9-479.9-748.8-598.2-1055.9-64.8-168.2-77-248.4-74.9-286.7 25 286.8 392.8 760.7 392.8 760.7M19550.1 6695.7c-230.1 7.3-423.3 68-729.5-65.6-306.3-133.6-508.1-305.5-508.1-305.5 0 0-166.1-182.4-240.4-281.7-10.9-15.3-17.3-24.4-17.3-24.4l38.9-7c0 0 246.1 522.8 756.8 461.9 510.7-60.8 780.3-227.3 1225.5 92.9 445.3 320.2 797.9 910.5 935.9 994.2 0 0-441.9-204-733-407.9-291.1-203.8-498.6-464.1-728.8-456.9" class="color327f6b svgShape"></path><path fill="#327f6b" d="m 18024.8,8775.8 c -91.4,-65.8 -664.4,-283.6 -678.8,-743.9 -14.5,-460.2 443.3,-675.1 531.9,-832.2 88.5,-157 248.7,-194.1 229.7,-280.5 -19,-86.3 -60.6,-406.6 -185.6,-703.2 l 8.2,-29.1 c 54,114.6 132.8,289.8 177,426.4 71.8,222 56.9,324.2 26.8,524.6 -30.1,200.3 -395.4,679 -463.1,901.8 -67.6,222.8 340.5,473.9 451,615.3 110.5,141.4 153.8,540.9 153.8,540.9 0,0 -159.5,-354.3 -250.9,-420.1" class="color327f6b svgShape"></path><path fill="#96d9c9" d="m 11898.9,1249.8 c 338.2,438.5 2193.1,2788.1 3402.6,3179.6 1335,432.2 76.7,-1284.3 76.7,-1284.3 0,0 2368.4,2589.7 3237.4,2356.2 796.7,-214 0,-1819.2 0,-1819.2 0,0 897.3,888.9 1985.5,888.9 1059,0 -739.9,-3152.5 -836.9,-3321.2 h -7865.3" class="color96d9c9 svgShape"></path><path fill="#256653" d="M 5947.54,1263.2 C 4866.25,2733.6 3551.68,4092.7 1988.57,5274.5 c -15.6,11.8 -36.66,-15.4 -20.95,-27.4 C 3450.11,4107.5 4761.68,2761.8 5865.33,1241.2 l 82.21,22" class="color256653 svgShape"></path><path fill="#256653" d="M2860.86 3958.2c36.13 25.6 129.77 122.9 254.73 153.3 118.31 40 267.94 13.2 262.77 9.9 3.11-7.1-98.55 108.5-257.28 142-152.48 44.6-362.04 7.2-430.52-53.3-155.42-105.2-167.86-283.9-90.83-317 76.54-35.3 178.8 13.4 261.13 65.1M2224.23 4519.1c36.14 25.6 129.78 122.8 254.73 153.3 118.32 40 267.94 13.2 262.78 9.9 3.1-7.1-98.55 108.4-257.28 142-152.49 44.5-362.04 7.1-430.52-53.4-155.43-105.1-167.87-283.8-90.84-317 76.55-35.2 178.81 13.4 261.13 65.2M3932.37 4207.3c-33.86-21.1-154.34-63.5-209.7-159.8-64.22-86.7-63.3-227.2-58.85-224.1 7-5.5-97.03 128.9-103.52 280.1-19.25 150.1 59.02 317 135.86 352.3 140.31 92.8 332.38 32.2 353.41-47.9 23.37-80.5-47.12-149.8-117.2-200.6M4097.16 6211.7C5064.79 4700.4 5771 3021.6 6174.78 1238.1l66.33 17.8c-402.09 1746.2-1103.57 3422-2069.59 4931.6-224.51 350.8-466.94 767.1-887.31 903.9-8.11 2.7-11.18-9.7-3.45-12.6 383.95-144.7 606.34-539.1 816.4-867.1" class="color256653 svgShape"></path><path fill="#256653" d="M4008.73 7148.9c-24.91-36.7-120.26-132.2-148.28-257.7-37.63-119.1-7.92-268.2-4.72-263 7.19-2.9-110.33 96.4-147.05 254.5-47.53 151.5-14.26 361.8 44.86 431.5 102.1 157.4 280.5 173.4 315.14 97 36.77-75.8-9.86-179-59.95-262.3M3777.24 5799.9c36.12 25.6 129.77 122.9 254.72 153.4 118.32 39.9 267.94 13.1 262.78 9.9 3.11-7.2-98.55 108.4-257.28 142-152.48 44.5-362.04 7.1-430.52-53.4-155.43-105.2-167.86-283.9-90.84-317 76.56-35.3 178.81 13.4 261.14 65.1M4126.58 5208.7c36.13 25.6 129.78 122.9 254.73 153.3 118.31 40 267.93 13.2 262.78 9.9 3.1-7.1-98.56 108.4-257.29 142-152.48 44.6-362.03 7.2-430.52-53.3-155.42-105.2-167.86-283.9-90.83-317 76.55-35.3 178.8 13.4 261.13 65.1" class="color256653 svgShape"></path><path fill="#256653" d="M4497.53 6479.9c-30.38-32.3-139.6-111.6-187.05-231.1-55.93-111.7-50.09-263.6-46.12-258.9 6.63-4.1-93.75 112.6-105.1 274.4-23.03 157.2 42.97 359.6 112.33 419 125.66 139.4 304.34 127.1 326.51 46.2 24.35-80.7-37.97-175.2-100.57-249.6M5011.24 5809.4c-43.24-22.9-194.27-64.5-270.23-177.5-85.99-100.6-96.91-272.6-91.2-269.1 8.1-7.4-107.65 165.9-102.65 351.4-10.7 185.3 99.35 382.8 196.37 419.4 179.61 101.6 409.39 11 428.25-88.8 21.71-100.5-70.46-179.3-160.54-235.4M5551.91 4793.9c-46.48-15.3-202.35-30.9-296.24-129.6-101.67-84.7-141.36-252.4-135.14-249.9 6.73-8.6-78.22 181.7-42.09 363.7 20.62 184.5 162.31 360.6 264.1 380.4 194.13 69.9 405.4-58.1 407.22-159.6 4.49-102.7-99.61-164.8-197.85-205M3119.06 6911.1c20.26 16.7 71.4 78.4 143.98 101.8 68.24 28.9 157.92 19.6 155.02 17.4 2.15-4.1-63.05 59.8-158.42 72.8-92.14 19.6-214.47-11.7-252.34-50.4-87.34-69.1-86.88-175.3-39.86-191.5 46.82-17.6 105.19 15.7 151.62 49.9" class="color256653 svgShape"></path><path fill="#256653" d="M3313.06 7342.6c-.9-26.2-18.47-104.3 7.23-176.2 18.84-71.6 80.94-137 80.89-133.3 4.54.7-85.87 13.4-154.33 81-71.84 61-121.72 177-114.14 230.6 1.36 111.4 85.78 175.9 127.34 148.5 42.45-26.4 51.75-92.9 53.01-150.6M1765.77 5090.4c20.25 16.7 71.39 78.3 143.98 101.8 68.24 28.8 157.92 19.5 155.01 17.4 2.15-4.1-63.04 59.8-158.41 72.7-92.15 19.7-214.47-11.6-252.35-50.4-87.33-69-86.87-175.3-39.86-191.5 46.83-17.5 105.19 15.8 151.63 50" class="color256653 svgShape"></path><path fill="#256653" d="M1999.79 5525.6c-3.04-26.1-26.95-102.5-7.22-176.2 12.9-72.9 69.45-143.2 69.69-139.5 4.59.4-84.48 20.4-147.17 93.4-66.6 66.6-106.82 186.3-94.86 239.2 10.47 110.8 99.89 168.2 139.07 137.5 40.15-29.8 43.96-96.8 40.49-154.4M2207.98 2622.3c988.06-108.3 1908.28-544.4 2794.15-969.7 597.38-286.8 567.25-368.5 688.94-411.2 19.71-7 39.42 14.5 29.83 33.4-46.82 92.8-169.54 155.5-254.94 208.8-99.4 62.1-203.25 117-308.63 168.1-225.48 109.5-456.84 208-686.69 307.9-467.58 203.1-942.74 394.2-1436.73 523.6-270.8 70.9-546.38 122-825.28 147.2-5.19.4-5.8-7.5-.65-8.1" class="color256653 svgShape"></path><path fill="#256653" d="M3013.92 2941.5c-6.43-40.5-48.66-158.2-22.61-274.5 15.44-114.7 99.15-227.9 99.77-222.2 7.19.3-130.5 37.2-223.63 155.2-99.64 108.3-154.7 297.6-132.64 379.4 23.46 172.2 166.69 256 225.85 205.6 60.74-49 62.36-153.9 53.26-243.5M3884.37 2629.8c-6.43-40.5-48.66-158.2-22.62-274.5 15.45-114.6 99.16-227.8 99.78-222.2 7.19.3-130.5 37.3-223.63 155.2-99.64 108.3-154.71 297.7-132.64 379.4 23.46 172.3 166.68 256 225.84 205.7 60.75-49.1 62.37-154 53.27-243.6M4768.82 2235.6c-6.43-40.5-48.66-158.2-22.61-274.5 15.44-114.7 99.16-227.9 99.77-222.2 7.19.3-130.51 37.2-223.63 155.2-99.64 108.3-154.7 297.6-132.63 379.4 23.45 172.2 166.68 256 225.84 205.7 60.74-49.1 62.36-154 53.26-243.6" class="color256653 svgShape"></path><path fill="#256653" d="M2754.06 2128.2c17.89 33.5 52.46 143.8 136.54 214.9 75.37 75.9 200.24 112.6 197.55 108.1 5.11-4.3-116.97 45.4-251.44 10.4-133.86-24.2-280.11-133-309.46-205.5-78.86-140-20.05-281.7 51.64-277.6 72.14 2.2 131.88 78.6 175.17 149.7M3659.47 1807.8c17.88 33.4 52.45 143.7 136.54 214.9 75.36 75.8 200.24 112.5 197.55 108 5.11-4.2-116.97 45.4-251.44 10.5-133.86-24.2-280.12-133-309.46-205.6-78.86-140-20.06-281.7 51.63-277.6 72.14 2.3 131.88 78.6 175.18 149.8M2064.53 2458.1c15.65 18.7 51.93 83.4 114.12 116.9 57.35 37.7 140.62 44.3 138.33 41.8 2.64-3.4-67.46 43.9-156.51 39.8-87.25 2.4-193.47-46.6-221.48-88.2-68.01-77.5-49.81-174.3-4.25-181.2 45.6-8.1 93.2 32 129.79 70.9" class="color256653 svgShape"></path><path fill="#256653" d="m 2169.01,2883.8 c 3.59,-24.1 0.66,-98.2 36.1,-159.3 29.16,-62.2 96.69,-111.3 96.03,-108 4.01,1.5 -80.48,-2.2 -154.18,48 -75.66,43.5 -140.54,140.8 -142.61,191 -17.41,101.6 48.71,174.5 91.15,156.6 43.1,-16.9 62.71,-76 73.51,-128.3" class="color256653 svgShape"></path><path fill="#106eea" d="m 18536.9,8236.5 c 0,-3863.7 -3132.2,-6995.8 -6995.9,-6995.8 -3863.65,0 -6995.8,3132.1 -6995.8,6995.8 0,3863.7 3132.15,6995.9 6995.8,6995.9 3863.7,0 6995.9,-3132.2 6995.9,-6995.9" class="colorb75742 svgShape"></path><path fill="#3b8af2" d="m 17920.7,8236.5 c 0,-3523.3 -2856.3,-6379.6 -6379.7,-6379.6 -3523.33,0 -6379.58,2856.3 -6379.58,6379.6 0,3523.4 2856.25,6379.7 6379.58,6379.7 3523.4,0 6379.7,-2856.3 6379.7,-6379.7" class="colorf47458 svgShape"></path><path fill="#fcf5eb" d="m 16905.7,8236.5 c 0,-2962.8 -2401.8,-5364.7 -5364.7,-5364.7 -2962.79,0 -5364.64,2401.9 -5364.64,5364.7 0,2962.9 2401.85,5364.7 5364.64,5364.7 2962.9,0 5364.7,-2401.8 5364.7,-5364.7" class="colorfcf5eb svgShape"></path><path fill="#3b8af2" d="m 15573.6,8236.5 c 0,-2227.1 -1805.4,-4032.6 -4032.6,-4032.6 -2227.08,0 -4032.53,1805.5 -4032.53,4032.6 0,2227.2 1805.45,4032.6 4032.53,4032.6 2227.2,0 4032.6,-1805.4 4032.6,-4032.6" class="colorf47458 svgShape"></path><path fill="#fcf5eb" d="m 14404.6,8236.5 c 0,-1581.5 -1282,-2863.6 -2863.6,-2863.6 -1581.47,0 -2863.54,1282.1 -2863.54,2863.6 0,1581.5 1282.07,2863.6 2863.54,2863.6 1581.6,0 2863.6,-1282.1 2863.6,-2863.6" class="colorfcf5eb svgShape"></path><path fill="#106eea" d="m 12271.3,8236.5 c 0,-403.3 -327,-730.2 -730.3,-730.2 -403.2,0 -730.2,326.9 -730.2,730.2 0,403.3 327,730.2 730.2,730.2 403.3,0 730.3,-326.9 730.3,-730.2" class="colorb75742 svgShape"></path><path fill="#184655" d="m 16024.4,11861.1 -25.9,474.4 1606,1256.2 -83.9,-686.9 -1573.9,-1231.1 77.7,187.4" class="color184655 svgShape"></path><path fill="#12353d" d="m 16143.2,11701.4 454.2,-139.5 1606,1256.2 -686.9,84 -1574,-1231.1 200.7,30.4" class="color12353d svgShape"></path><path fill="#184655" d="m 11486.3,8176 v 0 c 36.5,-46.7 103.9,-55 150.6,-18.4 l 4524.8,3539.1 -132.3,169 -4524.7,-3539.1 c -46.7,-36.5 -55,-103.9 -18.4,-150.6" class="color184655 svgShape"></path><path fill="#f7a491" d="M18237.5 6862c0-45.4 17-82.1 37.9-82.1 20.9 0 37.9 36.7 37.9 82.1 0 45.3-17 82.1-37.9 82.1-20.9 0-37.9-36.8-37.9-82.1M17880.8 1537.7c9.9 70.7 13 179.3 11.9 304.6h247.6c-25.7-177.5-45.9-315.6-45.9-315.6l6.2-56.1.1-165.6h-541.6c0 0 114.9 51.5 275.7 153.3 11.9 7.5 39.3 31.5 46 79.4M18936.8 1579.3l-72 206.3h188.5c9.8-132.4 13.4-221.8 13.4-221.8l47.9-135.6 48.7-161.2c0 0-160.3-41.3-244.4 5.1l9.3 160.5 8.6 146.7" class="colorf7a491 svgShape"></path><path fill="#ea8c10" d="m 17959.1,6062.6 c 65.3,89.4 335,348.2 365,347.7 87.3,-1.5 374,-1.6 430,-30.1 l -2.7,-492.7 c -9.1,-41.4 -207,-685.6 -195.5,-826.7 l -1.4,-1.3 c -165.9,-160.2 -427.5,-147.6 -579.2,27.9 0,0 0.7,195.4 -22.7,373.7 -36.6,279.2 -155.9,379.6 6.5,601.5" class="colorf7cc7f svgShape"></path><path fill="#f7a491" d="m 18412,6687.7 c 0,0 -7.6,-181.8 8.7,-250.7 16.4,-69 38.1,-74.2 -102,-95.1 -55.1,-8.3 -108.2,-20.6 -108.2,-20.6 0,0 14.4,101.3 16.6,144 3.5,70.3 -16.2,287.6 -16.2,287.6 l 201.1,-65.2" class="colorf7a491 svgShape"></path><path fill="#3b8af2" d="m 18305.2,6597.2 c -28.8,-15.6 -55.8,-24.8 -80.6,-28.6 -4.8,85.8 -13.7,184.3 -13.7,184.3 l 191.8,-62.2 c -22.3,-37.2 -53.9,-69.9 -97.5,-93.5" class="colorf47458 svgShape"></path><path fill="#e25a44" d="M18928.3 1433.2c73.9-32.9 153.6-13.1 185.6-2.5l10.7-28.7 40.7-136c0 0-162.3-40.3-246.4 6.1l9.4 161.1M18106.3 1263.8h-563.1c-20.8 1.9-25.9 19-18.7 29.4 14.9 21.6 80.6 37.5 154.4 71.9 129.5-13.6 401.3 75.8 421.8 105.8 11.8-60.1 17.2-204.5 5.6-207.1" class="colore25a44 svgShape"></path><path fill="#355389" d="m 18149,5051.4 330,-2347.7 300.5,-1082.4 h 327 c 0,0 -75.9,872.1 -238.5,1181 0,0 -71.1,827.9 -142.1,1334.2 -10.6,75.7 41.9,272.1 28.2,322.9 -105.4,390.2 -198.2,601.4 -198.2,601.4 l -406.9,-9.4" class="color355389 svgShape"></path><path fill="#466eb6" d="m 18353,4036.3 -76.4,-901.8 c 0,0 78.1,-515.4 24.5,-857.4 -53.6,-342 -124.6,-655.8 -124.6,-655.8 H 17876 l -59.7,1703 c 0,0 -115.6,925.4 -75.6,1176.4 40,250.9 234.6,586.7 234.6,586.7 l 472.8,-21.6 c 0,0 128.2,-459.4 106.5,-613.6 -16.1,-114.5 -201.6,-415.9 -201.6,-415.9" class="color466eb6 svgShape"></path><path fill="#184655" d="m 18817.8,5583.1 c 357.3,107.2 261.7,422.2 259.7,410.2 1,9.8 34.7,49.4 51.3,83.3 69.4,141.3 -22.1,311.3 -127,370.2 69.6,179.6 0.5,351.8 -130.4,423.6 -66.1,36.3 -121.7,87.8 -166.4,147.4 -99.1,132.3 -279.4,265.4 -496.2,222 -214.5,-54.9 72.7,-179.2 44.3,-385.5 -14.4,-104.6 27,-89.6 91.6,-173.7 -93,-163.5 -39.3,-437.9 103.4,-562.4 -69.9,-294.6 5.1,-644.6 369.7,-535.1" class="color184655 svgShape"></path><path fill="#184655" d="m 18552.3,7023 c 42.3,-174.1 -186.2,-300.5 -367.1,-305.1 -117.6,-3 -171.6,9.1 -190.6,133 -30.8,200.9 51.9,323.4 167.9,374.1 149.7,65.5 355,-58.4 389.8,-202" class="color184655 svgShape"></path><path fill="#f7a491" d="m 18286.7,7140.1 c 0,0 79.5,-26.7 121.9,-107 42.4,-80.3 21.3,-337.5 -155.1,-422.3 -176.4,-84.8 -257.4,107.8 -244.6,249.9 12.8,142.1 63.9,328 277.8,279.4" class="colorf7a491 svgShape"></path><path fill="#ffffff" d="m 18176.5,6744.3 -125.2,1.9 c 0,0 2.2,-48.4 57.2,-50.9 67.1,-3 68,49 68,49" class="colorfff svgShape"></path><path fill="#184655" d="m 18471.3,6838.5 c 26.1,132.8 15.8,233.6 -78.6,282.2 -94.4,48.6 -175.1,96.8 -259.6,9.4 l -19.1,-10.7 c 0,0 159.5,-44.1 168.4,-128.8 8.9,-84.6 93.6,-185.3 80.6,-226.9 -13.1,-41.6 -28.1,-124.5 -28.1,-124.5 l 34.9,28.7 c 0,0 75.4,37.7 101.5,170.6" class="color184655 svgShape"></path><path fill="#f7a491" d="m 18306.9,6889.3 c -13.1,-36.7 -3.2,-73.5 22.3,-82.3 25.4,-8.7 56.7,13.9 69.9,50.6 13.2,36.7 3.2,73.6 -22.2,82.3 -25.5,8.8 -56.8,-13.9 -70,-50.6" class="colorf7a491 svgShape"></path><path fill="#ea8c10" d="m 4921.11,3866.6 267.6,1705.6 H 6813.27 L 6545.17,3866.6 Z M 8265.83,14813.2 7997.72,13107.5 H 6370.9 l 267.59,1705.7 z M 7103.79,7420.4 6835.68,5714.8 H 5211.07 l 267.59,1705.6 z M 7394.3,9268.6 7126.19,7563 H 5501.03 l 267.59,1705.6 z m -1313.36,1990.7 267.59,1705.7 h 1626.79 l -268.1,-1705.7 z m 1603.87,-142.5 -268.1,-1705.6 H 5790.99 l 267.58,1705.6 z M 4898.75,3724 H 6522.76 L 6135.18,1258.3 h 167.53 l 2186,13906.9 h -167.54 l -32.93,-209.5 H 6660.85 l 32.88,209.5 H 6526.19 L 4338.08,1258.3 h 167.53 L 4898.75,3724" class="colorf7cc7f svgShape"></path><path fill="#f79c8d" d="M11817.4 17460.1c-1.7-6.3-15.3-49.1-36-112.8l217.2-43.8c2.3 35.5 4.5 65.2 7.1 86.8 17.8 150.6 88.6 191.5 125 275.2 36.5 83.7 177.8 136.7 160.3 165.1-17.4 28.3-149-86.6-180.6-74.2-31.7 12.3 112.6 185.1 95.2 208.2-31.9 42.4-169-181.3-185.1-162.8-16.1 18.4 114.2 254.6 62 257.6-52.1 2.9-109.9-255.6-137.3-244.2-27.4 11.4 75.8 238.2 23.3 272.1-28 18.1-127.6-403.7-171.9-428.1-44.4-24.3-107 142-149.3 127.9-42.4-14.1 177.5-300.9 170.1-327M9795.16 18356.7c-.97-6.4-6.31-51-13.73-117.6l-215.95 49.7c12.6 33.3 22.86 61.3 29.41 81.9 45.84 144.7-1.76 211.1-.43 302.4 1.33 91.2-105.52 197.8-77.94 216.5 27.58 18.6 100.11-140.3 133.98-142.2 33.88-1.8-26.2 215.2-.9 229 46.6 25.5 79.2-234.9 101.49-224.7 22.29 10.2 1.02 279.1 49.75 260.3 48.74-18.8-5.23-278.2 24.43-279.1 29.66-1 29.16 248.3 90.93 257.5 33.01 4.9-50.29-420.4-19.88-460.9 30.41-40.4 155.98 85.2 188.68 54.9 32.8-30.3-285.81-200.9-289.84-227.7" class="colorf79c8d svgShape"></path><path fill="#ea8c10" d="m 12024.6,17367.8 c 0,0 -258.7,61.9 -261.2,41.1 -54.4,-455.2 -78.8,-619.8 -88,-624.5 -31.4,-16.2 -447.1,364 -521.2,389.7 -35.5,12.4 -74,10.3 -111,9.2 -88.2,-2.6 -105.6,-2.9 -105.6,-2.9 -2.5,-0.2 -3.2,-0.2 -3.2,-0.2 l 0.4,-83 c 99.4,-89.3 326.8,-1443.2 346,-1442.3 21.4,1 470.9,-112.1 463,-74.2 -1.3,6.1 -304.8,254.4 -390.9,612.8 -28.9,120.3 -43.1,249.9 -58.8,363.3 99.9,-50.1 490,-242.1 551.8,-216.7 192.3,78.9 178.7,1027.7 178.7,1027.7" class="colorf7cc7f svgShape"></path><path fill="#f7a491" d="m 12798.7,14964 c 0,0 418.3,-327.6 432.2,-385.7 20.1,-83.6 403.1,26.3 310.7,43.4 -21.2,3.9 -89.2,21.1 -94.8,24.1 -29.9,16 -402.1,464.4 -402.1,464.4 l -246,-146.2" class="colorf7a491 svgShape"></path><path fill="#ea8c10" d="m 13721.2,14621.7 -267,21.7 c 0,0 -76.3,-63.2 -223,-66.1 0,0 -23.5,-67 -12.3,-145.4 1.9,-13.5 4.2,-54.3 17.8,-53.4 49.3,3.4 180.8,36.1 330.5,66 0,0 201.3,42.7 317.5,112.2 116.3,69.6 -163.5,65 -163.5,65" class="colorf7cc7f svgShape"></path><path fill="#355389" d="m 10924.9,15785.7 c 0,0 306.2,-51.4 644.9,27.8 392,91.7 825.3,176.5 952.3,102.7 102.2,-59.5 740.5,-1023.9 740.5,-1023.9 l -246.5,-179.9 -702.8,787 c 0,0 -896.6,-330.8 -1098,-294.2 -458.6,83.5 -465.1,449.8 -290.4,580.5" class="color355389 svgShape"></path><path fill="#f7a491" d="m 11882.4,14316.9 c 0,0 -18.6,-505.8 -30.2,-591.4 -11.5,-85.3 214.7,-342.2 185.8,-252.8 -6.7,20.5 -23.8,88.6 -23.8,94.9 -0.1,33.9 83.9,610.9 83.9,610.9 l -215.7,138.4" class="colorf7a491 svgShape"></path><path fill="#ea8c10" d="m 12182.6,13288.4 -167,271.5 c 0,0 -91.8,37.2 -164.2,164.9 0,0 -70,-11.3 -133.7,-58.3 -11,-8.1 -85.7,-62.8 -80.5,-75.4 19.1,-46.5 121,-146 232.4,-254.6 0,0 157.8,-127.4 274.3,-196.6 116.4,-69.2 38.7,148.5 38.7,148.5" class="colorf7cc7f svgShape"></path><path fill="#466eb6" d="m 12378.8,15314.2 c -107.1,142.8 -971.4,278.4 -971.4,278.4 l -241,463.3 -532.9,-328.7 c 0,0 53.3,-424 93.3,-537.3 53.2,-151 411.4,-158.7 630.1,-156.5 201.3,2.1 568.9,-39 568.9,-39 l -124.3,-1096.9 c 0,0 244.4,-55.6 313.1,-46.6 7.7,1 397.4,1285.7 264.2,1463.3" class="color466eb6 svgShape"></path><path fill="#184655" d="m 10937.3,17179.4 -300.6,-16.8 c 0,0 -6.9,-2.1 -9,-2.5 -24.5,-4.5 -2.3,-880.7 19.6,-1208 21.8,-327.2 66.1,-464.7 66.1,-464.7 0,0 407.8,72.4 533,121 51.9,20.1 177.6,177.3 177.6,177.3 0,0 -128.4,172.6 -193.1,453.1 -49.9,216.3 -111.4,599.7 -146.6,679.7 -80.9,183.8 -147,260.9 -147,260.9" class="color184655 svgShape"></path><path fill="#f7a491" d="m 10645.2,17428.1 -8.5,-265.5 c 0,0 194.6,-335.3 294.5,-288.6 83.9,39.2 9.5,294.3 9.5,294.3 0,0 -14.6,58.5 -34.7,125.7 -14.1,47 -25.8,97.8 -24.9,135.2 2.1,90.7 -235.9,-1.1 -235.9,-1.1" class="colorf7a491 svgShape"></path><path fill="#3b8af2" d="m 10881.1,17429.2 c 2.1,90.7 -235.9,-1.1 -235.9,-1.1 l -0.8,-25.9 c 8,-12.1 16.8,-22.4 26.6,-30.3 63.9,-51.9 156.5,-75.3 231.7,-66.7 -12.5,43.7 -22.4,89.6 -21.6,124" class="colorf47458 svgShape"></path><path fill="#ea8c10" d="m 10877.7,18033.6 c 0,0 99.2,-149.5 106.6,-275.4 7.4,-125.8 -19.2,-211.6 -19.2,-211.6 l -318.3,380.4 230.9,106.6" class="colorf7cc7f svgShape"></path><path fill="#f48c7f" d="m 11017.3,17784 c 4.5,-44.1 -12.7,-81.9 -38.3,-84.5 -25.6,-2.6 -50,31 -54.4,75 -4.5,44.1 12.6,81.9 38.2,84.5 25.6,2.6 50,-31 54.5,-75" class="colorf48c7f svgShape"></path><path fill="#f7a491" d="m 10543.8,17866 c -7.3,1.6 -6.5,-364.7 99.6,-450.9 106.2,-86.2 290.9,-93.7 344.9,-6.9 59.7,96 2.9,482 -155,563.9 -157.9,82 -289.5,-106.1 -289.5,-106.1" class="colorf7a491 svgShape"></path><path fill="#ea8c10" d="m 10516.9,18093.2 c -81,-71.1 -120.3,-123 -175.1,-249.3 -67.4,-155.4 66.3,-316.3 178.5,-380.3 112.2,-63.9 121.5,-141.2 121.5,-141.2 l 4.6,47.6 c 2.3,17.5 1.6,31.6 -1.4,43.9 -3.5,14.4 -10.1,26.3 -15.9,38.6 -9.6,20.4 -40.3,90.4 -52.2,108.9 -31.6,48.6 -37.8,59.2 -22.2,105.4 12,35.6 -1.9,114.1 16.6,172.9 l 151,32.5 c 0,0 94.5,22.7 142.2,77.8 137,158 -133.8,334.3 -347.6,143.2" class="colorf7cc7f svgShape"></path><path fill="#f7a491" d="m 10590.6,17626.8 c 18.6,-40.2 14.7,-81.6 -8.6,-92.4 -23.4,-10.8 -57.4,13 -76,53.2 -18.6,40.2 -14.7,81.5 8.6,92.3 23.4,10.9 57.4,-13 76,-53.1" class="colorf7a491 svgShape"></path><path fill="#ea8c10" d="m 10636.7,17162.6 c 0,0 -298.1,13.9 -375,48.7 -46.6,21.1 -429.67,329.7 -429.67,329.7 l 4.3,826.4 -269.38,20.5 c 0,0 -139.67,-913.4 -91.29,-1013.4 49.96,-103.2 610.64,-528.3 722.74,-712.7 64.6,-106.3 199.3,-1551.4 219.7,-1564.5 145.1,-75.5 593.1,-150.9 582.5,-105.1 -291.6,1265.7 -363.9,2170.4 -363.9,2170.4" class="colorf7cc7f svgShape"></path><path fill="#ffffff" d="m 10763.9,17531.4 173.5,55.1 c 0,0 16.9,-67.2 -58.7,-93.6 -92.2,-32.3 -114.8,38.5 -114.8,38.5" class="colorfff svgShape"></path><path fill="#ea8c10" d="m 18167.8,14315.6 c 22.4,3.8 33.6,33.3 22.2,51.9 -18.3,29.9 -36.2,60.1 -54.2,90.2 -39.8,66.4 -43.4,67.8 -40.2,75.4 7.8,18.1 41.8,9.8 54.1,5.6 27.2,-9.3 52.2,-25.6 81.1,-29.3 56.4,-7.1 97.5,36 72.4,90.6 -23,50 -48.9,99.1 -75.2,147.8 60.5,-12.4 120.7,-26.5 181.3,-38 21.5,-4 36.2,15.1 27.6,35 -19.3,44.2 -76.2,175.2 -95,218.4 -4.9,11.2 -33.7,60.6 -23.7,70 8.9,8.5 50.4,-3 59.9,-4.4 52.6,-7.6 71.3,-9.6 242.9,-30.6 20.4,-2.5 37.5,25.5 25.3,42.5 -119.8,167.4 -98.9,182.7 -141.6,206.2 -9.6,5.2 -18.7,-1.3 -20.2,-11.2 -3.8,-25.1 -2.9,-31.4 42.2,-111.3 11.7,-20.7 23.9,-41 36.6,-61 -208,29.4 -259.7,41.8 -287.8,-4.9 -19.5,-32.4 -10.1,-41.2 98.4,-288.9 -62.7,16.3 -126.1,28.7 -189.6,42.3 -24.2,5.2 -41.9,-17.6 -31.5,-39.8 83.1,-178.8 92.6,-180 95.6,-197.7 0.1,-0.5 11,-3 -5.3,-1.6 -27.6,2.5 -78.5,42.7 -131.4,36.5 -46.5,-5.4 -90.8,-43.4 -80.3,-94.1 6.1,-29.4 17.1,-39.9 72.5,-138.3 -54.6,-10.8 -107.7,-28.1 -162.1,-53 -23.6,-10.8 -37.7,-21 -52.4,-42.5 -12.1,-17.6 2.9,-46.1 24.6,-44.9 61.6,3.5 88.4,51.2 253.8,79.1" class="colorf7cc7f svgShape"></path><path fill="#3b8af2" d="m 19260.2,13821.3 c -7.7,52.5 -11.5,102.6 -10,157.6 0.2,10.4 -1.6,29.7 8.9,36.2 25.3,15.7 63,-27.7 160,-48.9 42.1,-9.2 128.4,-31.9 146.8,24.6 9.5,29 3.3,65.6 3.2,95.7 0,22.8 0.8,45.6 1.1,68.4 157.5,-44.4 148.5,-53.6 184.2,-38.1 9.3,4.1 14.1,18.2 8.6,27 -20.5,32.4 -16.3,23.1 -214.3,81.2 -18.1,5.3 -40.3,-7.3 -40.2,-27.8 0.1,-30.9 8.2,-170.8 6.5,-188.1 -1.6,1.1 -9.2,-0.3 -10.8,-0.3 -65.8,2.3 -121.1,26.1 -180.7,50.7 -48.9,20.2 -115.3,20.6 -130.6,-42 -8.4,-34 -4.9,-104 0.1,-158 -95.9,30.7 -191.6,62.1 -287.6,92.1 -18.8,5.9 -45.8,-8 -44.3,-30.6 4.2,-62.5 6.4,-125.1 8,-187.7 -56.4,18.6 -109.7,45.9 -158,80.8 -35.6,25.7 -80.9,-24.2 13.4,-82.9 51.7,-34.5 108.4,-59.8 169.3,-75.8 20.2,-5.3 44.4,7.6 44.4,30.7 0.2,62 -2.4,124.1 -6.2,186.1 95.8,-29.4 192.1,-57.8 288,-87.2 23.5,-7.2 43.7,13.1 40.2,36.3" class="colorf47458 svgShape"></path><path fill="#3cb4c5" d="M19592 12565c.4-19.1 12.6-31.2 30.6-34.5 88-15.9 175.2-24 263.7-9 46 7.9 29.6 76.4-15.4 71.5-70.6-7.6-143.4-11.6-214.6-2.5 1.7 52.9 8.5 105.3 21.5 156.5 5 19.4-7.9 45.6-30.7 45-56.9-1.6-272-14.1-273.9-16.4.2.4.6 1.9-.1 5.7-4.2 22.9 12.6 100.6 10.9 136.1-2 39.9-55 54.4-87.1 57.5-65.1 6.2-137.3-40.7-200.7-15.5-61 24.4 7.6 120-41.6 194.8-37.9 57.6-103.1 40.3-205.9 20.5-25.3-4.9-49.9-9.9-62.6-34.8-3.1-6.1-3.7-15.1 2-20.4 31-28.8 68.1-15.8 162.1-.3 12 2 32.2 9.1 42.9.2 35.5-29.4-16.5-110.4 25.5-178.7 32.8-53.2 98.3-63 153.9-56.3 43.6 5.3 97.4 30.6 141.6 14.9-2.4-37.8-5.9-76-5.4-113.8.5-41.3 21.6-70 63.2-73.4 45.9-3.8 93.7 2.5 139.6 4.6 30.9 1.4 61.7 2.7 92.6 4.4-8.8-51.4-13.1-103.4-12.1-156.1M17058.2 14967.9c-246 201.8-371.3 20.3-300.5-63.5 30.3-35.9 84.2-38.8 111.4 1.8 12.4 18.6-5.9 49.4-29.1 42.1-19.2-6-23.7 15.8-3.3 24.2 27.4 11.4 60.7-8.7 84.3-21.2 55.1-29.2 127-66.3 136.4-135.4 13.9-103.1-90.9-212.2-246.3-152.1-224.1 86.7-213.5 453.4 24.2 514.3 129.4 33.1 268.3-21.8 347.7-128.2 15.5-20.8 43.2 3.6 34.8 24.4-63.4 157.9-265 218.1-417.9 164.6-156.8-54.9-234.9-220.2-211.5-379.9 24.6-167.6 167.8-307 342.6-289.1 191.7 19.6 299.2 257 127.2 398" class="color3cb4c5 svgShape"></path><path fill="#3c8f7c" d="m 19481,12006.4 c -40.1,28.1 -122.9,45.4 -149.9,-9.3 -12.5,-25.4 -5.5,-56.7 24,-66.4 28.9,-9.5 55.9,6 78.2,-20.7 19.1,-22.9 7.6,-55.8 -9.9,-76.3 -53.2,-62.7 -166.7,-43.5 -230.2,-8.7 -101,55.2 -118.6,199.7 -9.7,268.9 34.1,21.6 73.7,26.3 112.2,35.3 21.2,5 31.5,38.7 9,50 -86.5,43.7 -193.2,-12.3 -244.4,-85.9 -53.8,-77.2 -51.7,-187.2 -1.8,-265.8 55.7,-87.9 168.1,-131.7 269.2,-130.6 210,2.4 283.4,218.7 153.3,309.5" class="color3c8f7c svgShape"></path><path fill="#f8a492" d="m 15331.5,5523.4 c -6.5,-22.2 -10.2,-29.5 -18.3,-44.4 -52.8,-96.1 -175.4,-233.3 -175.4,-233.3 l -94.7,213.5 c 0,0 15.4,67.1 42.2,162.9 91.5,-23.9 178.7,-37.7 246.2,-98.7" class="colorf8a492 svgShape"></path><path fill="#466eb6" d="m 14788.1,5708.6 c 0,0 528.6,-227.6 545.7,-223.3 11,2.8 216.8,347.3 219,671.3 1,149.6 -154.3,329.6 -327.7,294 -87.3,-17.9 -85.9,-42.2 -215.1,-229.8 -129.1,-187.7 -221.9,-512.2 -221.9,-512.2" class="color466eb6 svgShape"></path><path fill="#f7a491" d="m 14336.9,1627.6 12.6,-208.1 c 4.6,-26.3 22.8,-91.4 22.8,-115.4 0,-90 -427.4,76.4 -331.6,116.3 8.6,3.6 54.1,30.9 56.9,61.6 4.4,47.2 15.5,142.7 15.5,142.7 l 223.8,2.9" class="colorf7a491 svgShape"></path><path fill="#3c8f7c" d="m 14041.7,1421.3 c 0,0 100.4,-27.6 151.8,-34.5 51.4,-6.8 119.1,51.1 155.5,35.5 40,-17.3 38.4,-172.4 38.4,-172.4 0,0 -538.1,-44.1 -689.4,1.5 -60,18.1 138.6,105.7 343.7,169.9" class="color3c8f7c svgShape"></path><path fill="#f7a491" d="m 15211.3,1627.6 12.6,-208.1 c 4.6,-26.3 22.8,-91.4 22.8,-115.4 0,-90 -427.5,76.4 -331.7,116.3 8.7,3.6 67.6,51.3 70.4,81.9 4.4,47.3 2.1,122.4 2.1,122.4 l 223.8,2.9" class="colorf7a491 svgShape"></path><path fill="#3c8f7c" d="m 14916.1,1421.3 c 0,0 100.3,-27.6 151.7,-34.5 51.4,-6.8 119.2,51.1 155.5,35.5 40,-17.3 41.7,-172.4 41.7,-172.4 0,0 -540.6,-51.5 -692.7,1.5 -59,20.6 138.6,105.7 343.8,169.9" class="color3c8f7c svgShape"></path><path fill="#f7a491" d="m 15171.6,6789.3 48.5,-306.5 c 0,0 -184.7,-148.2 -292.3,-117 -90.3,26.3 -28.4,144.4 -28.4,144.4 0,0 48.1,163.6 33.3,249.3 -14.7,85.8 238.9,29.8 238.9,29.8" class="colorf7a491 svgShape"></path><path fill="#fe875e" d="m 15136.8,6696.7 c -46.3,-21.9 -137.8,-51.7 -209,-58.9 6.8,42.8 10.7,88.2 4.9,121.7 -6.8,39.6 43.6,49 99.8,47.6 73.5,-6.3 139.1,-17.8 139.1,-17.8 l 9.3,-58.9 c -14,-14.7 -28.7,-26.5 -44.1,-33.7" class="colorfe875e svgShape"></path><path fill="#f7a491" d="m 15404.6,7142.8 c 7.6,0 -73,-342.4 -197.7,-401.3 -124.8,-58.9 -310.8,-28.2 -345.7,64 -38.6,102 102.2,451.3 277.7,495.7 175.4,44.4 265.7,-158.4 265.7,-158.4" class="colorf7a491 svgShape"></path><path fill="#13375b" d="m 15260.3,7457.4 c 99.6,-57.5 145.4,-142.7 160.7,-177.6 46.8,-22.2 103.4,-70.2 130.6,-199.6 33.4,-159 -85.4,-281.6 -211.3,-318.5 -125.9,-36.9 -145.3,-120.2 -145.3,-120.2 l -14.3,89.7 c 0,0 28,78 70.1,117.1 42.1,39.1 -19.9,96 -25.4,142.5 -4.2,35.7 22.1,105.2 16.4,163.8 0,0 -69.9,106.1 -138.9,132.3 -117.5,44.6 29.5,244.2 157.4,170.5" class="color13375b svgShape"></path><path fill="#f7a491" d="m 15207.2,6931.2 c -16.3,-39.6 -9.6,-78.8 14.9,-87.7 24.6,-8.9 57.7,15.9 74,55.5 16.3,39.5 9.6,78.8 -14.9,87.7 -24.5,8.8 -57.7,-16 -74,-55.5" class="colorf7a491 svgShape"></path><path fill="#f8a492" d="m 14742.5,5399.9 -726.1,118.4 c 0,0 82.6,208 112.2,208 29.5,0 549,-226.8 549,-226.8 l 41.3,-83 23.6,-16.6" class="colorf8a492 svgShape"></path><path fill="#184655" d="m 15114.5,4902 c 0,0 72.4,-350.2 42.9,-615.7 -29.5,-265.5 -31.8,-1208.8 -31.8,-1208.8 l 112.6,-1509.1 -267.3,-5.9 c 0,0 -316.9,1508.5 -311,1469.8 5.9,-38.8 -106.3,1062.1 -106.3,1062.1 l 377.9,840.8 183,-33.2" class="color184655 svgShape"></path><path fill="#13375b" d="m 15043.6,4918.6 c 0,0 47.3,-315.3 -11.8,-453.6 -59,-138.3 -506.3,-1495.2 -512.2,-1605.8 -5.9,-110.7 -154.7,-1333.6 -154.7,-1333.6 l -310.8,8.8 -67.2,1359.6 140.7,1708.8 136.7,432 779.3,-116.2" class="color13375b svgShape"></path><path fill="#f7a491" d="m 15220.1,6482.8 c 0,0 -76.7,-50.3 -148.2,-44.4 -71.4,5.8 -172.5,71.8 -172.5,71.8 l 14,47.6 c 0,0 185,26.9 189.6,24 4.7,-2.9 117.1,-99 117.1,-99" class="colorf7a491 svgShape"></path><path fill="#f8a492" d="m 14403.2,5736.6 c 0,0 -274.6,-259.2 -398.6,-215 -124,44.3 -175.3,195.5 127.2,416.9 270.7,198 271.4,-201.9 271.4,-201.9" class="colorf8a492 svgShape"></path><path fill="#50bfa5" d="m 14217.1,5416.5 c 40.8,222 336.5,912.8 360.1,1040 11.5,61.9 171,63.2 323,55.2 160.4,-8.6 319.9,-28.9 319.9,-28.9 0,0 142,-23.3 204.5,-81.9 62.5,-58.5 79.2,-220.5 -10.7,-528 -70.9,-242.7 -158.9,-376 -202.4,-552.8 -8.8,-59.3 -16.3,-117.8 -26.4,-186.2 -15.9,-264.3 0.2,-613.6 0.2,-613.6 0,0 -773.4,-160.4 -1062.7,83 0,0 52.7,585.8 94.5,813.2" class="color50bfa5 svgShape"></path><path fill="#466eb6" d="m 14019.9,5893.8 c 0,0 303.5,-250.5 321.2,-250.5 11.4,0 433.1,310.2 530.4,565 53.8,140.9 -59.1,298.5 -188,298 -89.3,-0.4 -129.1,-23.4 -306.2,-172.8 -177.1,-149.3 -357.4,-439.7 -357.4,-439.7" class="color466eb6 svgShape"></path><path fill="#ffffff" d="m 14882.8,6953.6 113.9,-62.4 c 0,0 -29.8,-47.9 -80.8,-22.1 -62.2,31.5 -33.1,84.5 -33.1,84.5" class="colorfff svgShape"></path><path fill="#f7a491" d="m 7670.1,5618.6 c -8.92,25.5 115.34,46.1 121.95,72 6.62,25.8 -156.89,27.8 -162.74,50.6 -10.79,41.8 179.21,8.8 175.47,28.3 -3.75,19.6 -197.99,63.3 -177,96.8 20.99,33.6 196.69,-66.3 202.01,-43.5 5.32,22.8 -171.74,78.2 -168.57,128.1 1.69,26.7 290.62,-133.1 324.12,-118.6 33.51,14.6 -36.04,140 -9.36,158.6 26.68,18.6 103.25,-254.9 121.66,-264.1 18.35,-9.1 408.72,-231.9 547.6,-267.3 16.87,46.5 215.77,334.5 230.65,378.5 77.93,-55.5 157.86,-63.1 238.29,-113.6 -58.26,-146 -325.71,-551.4 -366.31,-569.7 -123.6,-55.9 -601.64,340.6 -697.06,408.5 -95.51,67.9 -150.16,45.9 -214.74,67.3 -64.58,21.5 -157.05,-37.5 -165.97,-11.9" class="colorf7a491 svgShape"></path><path fill="#184655" d="m 10322.4,6676.4 c -71.5,190.6 -258.5,306 -453.11,270.4 -59.73,96.4 -159.32,167.9 -267.66,191.1 -213.72,45.8 -502.74,-38.6 -494.95,-264.9 -82.9,-152 -86.09,-369.4 40.78,-485 -44.14,-204.4 147.33,-402.1 396.22,-394.9 86.67,-142.9 251.79,-234.8 416,-215.2 39.41,4.7 99.52,14.5 109.52,12.1 -12.6,2.3 263.7,-209.5 497.8,116.2 238.9,332.4 71.1,734.7 -244.6,770.2" class="color184655 svgShape"></path><path fill="#f7a491" d="m 9651.5,4838.1 c 7.1,-3 -93.92,-133.1 -192.32,-225.2 -79.35,-99.6 -153.77,-217.5 -179.38,-346 -38.95,-195.4 -6.55,-1160.8 -40.45,-1229.5 -291.18,-284.7 -502.04,-999.1 -561.22,-1217.1 -11.54,-42.5 -34.91,-80.7 -67.31,-110.5 l 12.95,-246.3 144.68,-133.3 c 0,0 -32.18,200.7 32.13,349.6 0,0 733.12,1110.2 776.64,1195.1 83.15,241.7 385.93,1479.9 385.93,1479.9 l 70.25,284.7 -381.9,198.6" class="colorf7a491 svgShape"></path><path fill="#355389" d="m 8452.33,1630.5 c 0,0 91.57,-141.1 99.39,-196.1 7.83,-55 56.6,-179.7 110.54,-187.6 12.25,-1.8 222.05,-17.2 220.52,9 -1.16,20.1 -77.11,48.7 -112.37,73 -60.96,42.1 -155.57,385 -155.57,385 0,0 -158.56,-39.3 -162.51,-83.3" class="color355389 svgShape"></path><path fill="#f79c8d" d="m 9682.13,6346 c 0,0 306.81,551.8 381.47,669.1 74.6,117.3 269.1,583.4 276,601.7 7,18.4 -133.9,239 -102.5,246.5 31.5,7.6 66.3,-116.2 99.8,-101.5 33.6,14.8 131.6,313 150.7,298.2 35.7,-27.7 -52.8,-185 -33.8,-194.9 19.1,-9.9 76.8,173.1 114.3,167.7 37.4,-5.4 -71.2,-167.7 -60.7,-182 10.4,-14.4 123.2,138.6 143.6,106 11.1,-17.7 -103.7,-133.5 -81.6,-144.4 22,-10.8 124.1,63.9 134.9,42.4 10.9,-21.6 -94.4,-51.1 -125.9,-109.2 -31.4,-58.1 -85,-83.2 -107.3,-190.8 -22.3,-107.6 -55.5,-497 -169.6,-691.2 -114,-194.3 -364.73,-624.2 -364.73,-624.2 L 9682.13,6346" class="colorf79c8d svgShape"></path><path fill="#f7a491" d="m 10278.1,4410.2 c 0,0 472.2,-1009.6 475.2,-1187.1 2.6,-152.2 -82.5,-1005.9 -58.7,-1716.8 0.8,-25.7 33.3,-59.8 80.6,-81.5 26.7,-12.2 155.3,-69.6 155.3,-69.6 l 17.6,-46 -442.8,31.5 -6.3,120.9 c 0,0 -176.3,1063.5 -158.3,1364.3 2.8,47.3 25.8,330.1 25.8,330.1 l -532.59,1028.2 334.89,440.2 109.3,-214.2" class="colorf7a491 svgShape"></path><path fill="#3b8af2" d="m 9195.73,3197.4 h 0.18 -0.18" class="colorf47458 svgShape"></path><path fill="#3c8f7c" d="m 9871.18,6047.3 c 12.7,77.6 132.82,271.9 151.82,319.5 0,0 -139.3,177 -252.36,163.6 0,0 -151.93,-251.9 -238.32,-260.3 -86.37,-8.5 -390.21,-21.7 -443.47,-54 -53.25,-32.3 -279.25,-379.3 -279.25,-379.3 0,0 203.08,-207.4 284.78,-206.9 0,0 43.43,85.5 60.73,104.2 12.31,-39.8 201.52,-652.8 201.25,-791.7 l 1.46,-1.2 c 176.88,-143.4 434.95,-110.2 571.37,73.5 0,0 -16.04,191.1 -6.95,367.3 14.25,276.1 70.13,422.8 -51.06,665.3" class="color3c8f7c svgShape"></path><path fill="#ea8c10" d="m 10856,3675.7 -926.81,1339 c -57.18,-23.2 -111.2,-43.3 -172.3,-55.1 -132.89,-25.7 -265.97,-21.5 -400.53,-17.2 0,-5 -0.27,-9.4 -0.79,-13.1 -15.46,-110.4 -161.88,-281.3 -192.06,-616.3 -34.26,-380.2 -13.54,-1040.7 -1.94,-1084.1 616.16,74.9 1519.63,263.3 1694.43,446.8" class="colorf7cc7f svgShape"></path><path fill="#f7a491" d="m 9376.03,6493.3 c 0,0 32.58,-175.6 26.06,-244.8 -6.52,-69.3 24.86,-292.4 165.62,-293.2 140.76,-0.7 26.73,283.8 13.47,351.6 -13.26,67.9 -16.4,277.9 -16.4,277.9 l -188.75,-91.5" class="colorf7a491 svgShape"></path><path fill="#3b8af2" d="m 9567.69,6479.5 c -2.19,57.4 -2.91,105.3 -2.91,105.3 l -188.75,-91.5 c 0,0 6.66,-35.9 13.35,-81.6 82.63,-17.3 142.5,14.5 178.31,67.8" class="colorf47458 svgShape"></path><path fill="#f7a491" d="m 9307.03,6977.8 c 0,0 -72.74,-42 -99.33,-133.1 -26.59,-91.1 3.68,-326.1 191.57,-382.8 187.89,-56.7 269.29,129.4 230.59,274.9 -38.7,145.5 -122.88,329.7 -322.83,241" class="colorf7a491 svgShape"></path><path fill="#f7a491" d="M9653.35 6793.2c-3.67-39.1-24.38-69-46.24-66.7-21.86 2.2-36.59 35.7-32.91 74.7 3.68 39.1 24.38 69 46.24 66.8 21.86-2.3 36.6-35.8 32.91-74.8M9261.8 6642.6c22.08-34.2 21.99-74.5-.18-90-22.17-15.5-58.03-.4-80.11 33.7-22.07 34.2-21.99 74.5.18 90 22.17 15.5 58.04.4 80.11-33.7" class="colorf7a491 svgShape"></path><path fill="#355389" d="m 10503.8,1256.4 h 559.4 c 20.7,1.9 25.8,18.6 18.6,28.9 -14.8,21.1 -80.1,36.7 -153.4,70.5 -128.7,-13.4 -408.9,74.5 -429.2,104 -11.7,-59.1 -6.9,-200.9 4.6,-203.4" class="color355389 svgShape"></path><path fill="#ffffff" d="m 9402.82,6603.7 120.08,35.4 c 0,0 10.89,-47.3 -41.45,-64.4 -63.84,-20.9 -78.63,29 -78.63,29" class="colorfff svgShape"></path><path fill="#3c8f7c" d="m 6355.81,9375.6 c 15.63,-0.7 58.48,-15 121.14,-133.4 80.02,-151.3 196.97,-608.1 196.97,-608.1 l -349.09,-130 -44.85,95.4 -73.86,734 c 0,0 145.35,42.3 149.69,42.1" class="color3c8f7c svgShape"></path><path fill="#96d9c9" d="m 5894.35,9441.4 c 99.82,-0.1 346.81,-29.2 461.45,-65.9 0,0 84.21,-723.8 -75.82,-1273.8 -35.82,-123.1 29.63,-510.4 29.63,-510.4 L 5275.22,7605 c 0,0 122.55,936.2 76.38,1087.4 -46.16,151.2 -47.26,678.3 -47.26,678.3 0,0 7.09,1.1 232.4,40 105.09,18.2 251.03,30.9 357.61,30.7" class="color96d9c9 svgShape"></path><path fill="#f7a491" d="m 5773.82,6247.9 c 0,0 22.88,-264.1 64.95,-337.3 42.08,-73.1 -2.21,-197.5 -4.42,-214.5 -2.22,-17.1 -88.58,-41.5 -225.87,-26.8 -137.3,14.6 -135.09,46.3 -124.01,97.5 11.07,51.2 84.14,117 88.57,165.8 4.43,48.7 -42.07,224.3 -42.07,224.3 l 242.85,91" class="colorf7a491 svgShape"></path><path fill="#355389" d="m 6192.9,7809.3 c 0,0 714.04,39.7 873.49,-56.9 159.44,-96.6 -113.28,-570.5 -113.28,-570.5 0,0 -496.86,22.9 -1470.05,-33.3 -230.45,-13.3 -250.32,600.9 -207.23,651.8 43.1,50.8 917.07,8.9 917.07,8.9" class="color355389 svgShape"></path><path fill="#13375b" d="m 5591.35,5648.8 c -141.38,15 -123.89,84.5 -112.49,137.2 7.14,33 47.69,71.9 71.87,108.7 12.64,-10 33.2,-27.8 94.59,-45.9 63.75,-18.9 151.15,18.4 206.84,41.7 19.85,-73.8 20.76,-168 18.9,-182.3 -2.28,-17.6 -138.33,-74.5 -279.71,-59.4" class="color13375b svgShape"></path><path fill="#466eb6" d="M 5669.38,7298.5 C 5697.91,7082.6 5839.16,6008 5839.16,6008 l -327.73,-40.6 c 0,0 -403.03,1402.6 -382.37,1617.2 20.67,214.5 171.53,232.6 171.53,232.6 0,0 293.29,52.7 368.79,-518.7" class="color466eb6 svgShape"></path><path fill="#f7a491" d="m 5293.08,9290.2 c 96.71,36.3 144.02,-835.1 157.07,-1193.8 171.26,-16.5 469.78,-0.1 544.11,5.5 34.96,2.6 115.56,32.1 150.33,36.7 35.63,4.6 67.92,7.1 85.44,4 6.43,-1.1 184.95,-74.1 200.22,-90.1 18.94,-19.9 70.14,-70 61.49,-91.6 -8.63,-21.7 -98.47,60.3 -98.47,60.3 l -43.89,24.7 c 54.64,-53.4 158.89,-123.7 143.87,-149.3 -14.64,-25 -108.67,46.3 -175.69,95 57.48,-51.9 128.9,-144.9 112.44,-159.3 -14.79,-13.1 -96.02,94.5 -182.83,125.5 -32.17,11.5 -64.24,-20.3 -89.54,-24.2 -18.6,-2.8 -47.32,-8.8 -65.56,-3.6 l -93.99,26.6 c -32.03,-2.9 -32.83,-21.8 -65.16,-28.7 -37.54,-8 -99.13,-16.4 -146.93,-28.1 -275.28,-67.2 -367.1,-98.5 -451.38,-98.4 -255.29,0.2 -270.1,1403.1 -41.53,1488.8" class="colorf7a491 svgShape"></path><path fill="#3c8f7c" d="m 5109.54,8472.1 c -18.12,367.4 -15.47,820.2 190.48,897.5 81.27,30.5 224.52,-152.8 198.76,-905 -109.95,-9 -271.36,-16.3 -389.24,7.5" class="color3c8f7c svgShape"></path><path fill="#f7a491" d="m 6732.19,6022 c 0,0 -28.6,-91.7 22.61,-152.4 51.21,-60.6 263.98,-120.1 291.91,-152.9 27.93,-32.9 25.81,-60.8 25.81,-60.8 l -597.19,16.4 6.51,180.4 27.5,129.6 222.85,39.7" class="colorf7a491 svgShape"></path><path fill="#13375b" d="m 6791.94,5839.4 c 0,0 -153.45,-62.1 -227.57,-25.3 -74.12,36.7 -71.88,46.9 -93.33,33.2 -21.45,-13.7 -29.13,-182.8 -29.13,-182.8 l 671.53,-19.7 c 46.73,1.1 70.36,35.5 32.39,65 -26.03,20.2 -56.12,33.7 -73.22,43.5 -52.53,30.1 -280.67,86.1 -280.67,86.1" class="color13375b svgShape"></path><path fill="#466eb6" d="m 6709.56,7640.1 c 46.15,97.1 151.13,223.6 335.84,147.4 176.16,-72.6 223.45,-251.2 167.86,-434 -55.57,-182.8 -421.49,-1257.6 -434.25,-1405.4 l -292.15,-1.9 c 0,0 53.09,851 66.12,1056.7 12.53,197.9 76.69,469.1 156.58,637.2" class="color466eb6 svgShape"></path><path fill="#12353d" d="m 7183.84,8630 h -976.61 c -25.84,0 -49.12,-15.7 -58.92,-39.7 L 5847.6,7854.4 h -538.41 c -15.06,0 -27.27,-12.2 -27.27,-27.3 0,-15.1 12.21,-27.4 27.27,-27.4 h 1532.37 c 42.13,0 80.33,24.9 97.59,63.4 l 302.79,676.8 c 18.91,42.3 -11.91,90.1 -58.1,90.1" class="color12353d svgShape"></path><path fill="#ffffff" d="m 6658.03,8201.4 c -6.59,-33 -35.33,-55.1 -64.18,-49.3 -28.85,5.8 -46.89,37.2 -40.29,70.3 6.6,33.1 35.33,55.2 64.18,49.4 28.85,-5.8 46.89,-37.3 40.29,-70.4" class="colorfff svgShape"></path><path fill="#0e2e35" d="m 6126.44,10325.5 c -29.43,9.9 -58.41,21.1 -86.4,34.6 -31.62,15.2 -72.61,33.1 -98.51,37.1 -54.5,8.4 -148.13,2.8 -199.84,-53.3 -64.42,-69.9 -178.88,-12.6 -155.83,-378.6 26.11,-414.3 256.45,-368.8 262.04,-361.8 5.59,7 205.43,265 205.43,265 0,0 69.88,-152.8 69.88,-147.2 0,5.4 356.79,485.1 3.23,604.2" class="color0e2e35 svgShape"></path><path fill="#f7a491" d="m 5951.57,9572.9 19.89,-148 c 0,0 44.54,-213.3 -12.77,-254.4 -57.3,-41.1 -243.7,260.5 -243.7,260.5 l 19.69,375 216.89,-233.1" class="colorf7a491 svgShape"></path><path fill="#3b8af2" d="m 5728.32,9684.5 c 47.33,-128 160.08,-206.6 240.11,-237.1 l -16.86,125.5 -216.89,233.1 -6.36,-121.5" class="colorf47458 svgShape"></path><path fill="#f7a491" d="m 5939.8,10214.2 c 121.43,19.6 230.35,-78 227.31,-199.6 -1.31,-52.8 -5.65,-118.8 -16.63,-189.9 -26.4,-170.9 -142.98,-321.3 -220.06,-307.9 -77.09,13.5 -271.05,160.9 -236.9,404 21.08,150.2 118.85,272.8 246.28,293.4" class="colorf7a491 svgShape"></path><path fill="#f7a491" d="m 5747.01,9891.8 c -6.51,-37.6 -36.6,-63.7 -67.23,-58.4 -30.62,5.4 -50.17,40.2 -43.67,77.7 6.51,37.6 36.6,63.7 67.23,58.4 30.62,-5.3 50.17,-40.1 43.67,-77.7" class="colorf7a491 svgShape"></path><path fill="#0e2e35" d="m 5703.34,9969.5 c 0,0 93.2,-23.2 127.79,36.8 34.59,60 158.27,189.3 315.49,135.7 157.22,-53.7 -138.35,130.4 -150.93,130.4 -12.58,0 -163.51,1 -163.51,1 0,0 -116.35,-95.7 -120.54,-106.2 -4.19,-10.5 -37.73,-125.1 -37.73,-125.1 l 29.43,-72.6" class="color0e2e35 svgShape"></path><path fill="#ffffff" d="m 5873.86,9719.4 169.59,-32.4 c 0,0 -16.18,-63.9 -91.17,-51.8 -91.44,14.7 -78.42,84.2 -78.42,84.2" class="colorfff svgShape"></path><path fill="#12353d" d="M 20569.1,1267.7 H 2884.92 c -34.63,0 -62.71,-28.1 -62.71,-62.7 0,-34.6 28.08,-62.7 62.71,-62.7 H 20569.1 c 34.7,0 62.7,28.1 62.7,62.7 0,34.6 -28,62.7 -62.7,62.7" class="color12353d svgShape"></path><path fill="#f7a491" d="m 16949.6,5822.7 c -8.9,25.5 115.4,46.2 122,72 6.6,25.9 -156.9,27.9 -162.7,50.6 -10.8,41.8 179.2,8.8 175.4,28.3 -3.7,19.6 -198,63.3 -177,96.9 21,33.5 196.7,-66.4 202,-43.6 5.4,22.8 -171.7,78.2 -168.5,128.1 1.7,26.7 290.6,-133 324.1,-118.5 33.5,14.5 -36.1,139.9 -9.4,158.5 26.7,18.6 103.3,-254.9 121.7,-264 18.3,-9.1 408.7,-231.9 547.6,-267.4 16.9,46.6 53.3,109.3 68.2,153.3 77.9,-55.5 135.8,-83.3 216.2,-133.9 -58.3,-146 -141.2,-305.9 -181.8,-324.2 -123.6,-55.8 -601.6,340.6 -697,408.5 -95.6,67.9 -150.2,45.9 -214.8,67.3 -64.6,21.5 -157,-37.5 -166,-11.9" class="colorf7a491 svgShape"></path><path fill="#eab765" d="m 18391.7,6101.1 c 36.9,-152.1 -160,-491.1 -160,-491.1 0,0 -280.6,132.4 -330,189.5 0,0 190.7,328.9 203.2,348.9 56.5,90.6 133.3,90.7 183.4,84.8 40.2,-4.7 103.4,-132.1 103.4,-132.1" class="coloreab765 svgShape"></path></g></svg></g></svg>